<svg width="121" height="467" viewBox="0 0 121 467" fill="none" xmlns="http://www.w3.org/2000/svg">
<circle cx="12.2895" cy="12.2895" r="12.2895" transform="matrix(-1 0 0 1 24.5789 0)" fill="#39CB75"/>
<circle cx="12.2895" cy="12.2895" r="12.2895" transform="matrix(-1 0 0 1 113.063 0)" fill="#39CB75"/>
<circle cx="12.2895" cy="12.2895" r="12.2895" transform="matrix(-1 0 0 1 113.063 88.4842)" fill="#39CB75"/>
<circle cx="12.2895" cy="12.2895" r="12.2895" transform="matrix(-1 0 0 1 113.063 176.968)" fill="#39CB75"/>
<circle cx="12.2895" cy="12.2895" r="12.2895" transform="matrix(-1 0 0 1 113.063 265.453)" fill="#39CB75"/>
<circle cx="12.2895" cy="12.2895" r="12.2895" transform="matrix(-1 0 0 1 113.063 353.937)" fill="#39CB75"/>
<circle cx="12.2895" cy="12.2895" r="12.2895" transform="matrix(-1 0 0 1 113.063 442.421)" fill="#39CB75"/>
<circle cx="12.2895" cy="12.2895" r="12.2895" transform="matrix(-1 0 0 1 24.5789 88.4842)" fill="#39CB75"/>
<circle cx="12.2895" cy="12.2895" r="12.2895" transform="matrix(-1 0 0 1 24.5789 176.968)" fill="#39CB75"/>
<circle cx="12.2895" cy="12.2895" r="12.2895" transform="matrix(-1 0 0 1 24.5789 265.453)" fill="#39CB75"/>
<circle cx="12.2895" cy="12.2895" r="12.2895" transform="matrix(-1 0 0 1 24.5789 353.937)" fill="#39CB75"/>
<circle cx="12.2895" cy="12.2895" r="12.2895" transform="matrix(-1 0 0 1 24.5789 442.421)" fill="#39CB75"/>
</svg>
