<svg width="697" height="627" viewBox="0 0 697 627" fill="none" xmlns="http://www.w3.org/2000/svg">
<g clip-path="url(#clip0_219_99)">
<g filter="url(#filter0_dd_219_99)">
<path d="M335 246.333L297.75 268.063V311.521L335 333.25L372.25 311.521V268.063L335 246.333ZM353.836 271.663L334.839 282.739L316.003 271.75L335 260.675L353.836 271.663ZM310.043 282.615L328.469 293.368V315.097L310.043 304.356V282.615ZM340.761 315.556V293.616L359.958 282.416V304.356L340.761 315.556ZM223.25 147L186 168.729V212.188L223.25 233.917L260.5 212.188V168.729L223.25 147ZM242.086 172.33L223.089 183.406L204.253 172.417L223.25 161.341L242.086 172.33ZM198.293 183.269L216.719 194.022V215.751L198.293 205.035V183.269ZM229.011 216.211V194.283L248.208 183.083V205.023L229.011 216.211ZM223.25 358.083L186 379.813V423.271L223.25 445L260.5 423.271V379.813L223.25 358.083ZM242.086 383.413L223.089 394.489L204.253 383.5L223.25 372.425L242.086 383.413ZM198.293 394.365L216.719 405.118V426.847L198.293 416.119V394.365ZM229.011 427.306V405.366L248.208 394.166V416.106L229.011 427.306ZM446.75 147L409.5 168.729V212.188L446.75 233.917L484 212.188V168.729L446.75 147ZM465.586 172.33L446.589 183.406L427.752 172.417L446.75 161.341L465.586 172.33ZM421.793 183.282L440.219 194.034V215.764L421.793 205.023V183.282ZM452.511 216.223V194.283L471.708 183.083V205.023L452.511 216.223ZM446.75 358.083L409.5 379.813V423.271L446.75 445L484 423.271V379.813L446.75 358.083ZM465.586 383.413L446.589 394.489L427.752 383.5L446.75 372.425L465.586 383.413ZM421.793 394.365L440.219 405.118V426.847L421.793 416.106V394.365ZM452.511 427.306V405.366L471.708 394.166V416.106L452.511 427.306ZM297.75 184.25H372.25V196.667H297.75V184.25ZM297.75 395.333H372.25V407.75H297.75V395.333ZM229.458 258.75V333.25H217.042V258.75H229.458ZM276.555 256.614L250.219 230.279L258.998 221.5L285.333 247.823L276.555 256.614ZM384.667 249.971L411.002 223.636L419.781 232.414L393.445 258.75L384.667 249.971ZM286.923 331.748L260.587 358.083L251.808 349.305L278.144 322.969L286.923 331.748ZM395.581 322.435L421.917 348.771L413.138 357.549L386.802 331.214L395.581 322.435ZM452.958 258.75V333.25H440.542V258.75H452.958Z" fill="#39CB75"/>
</g>
</g>
<defs>
<filter id="filter0_dd_219_99" x="34.32" y="-4.67999" width="601.36" height="601.36" filterUnits="userSpaceOnUse" color-interpolation-filters="sRGB">
<feFlood flood-opacity="0" result="BackgroundImageFix"/>
<feColorMatrix in="SourceAlpha" type="matrix" values="0 0 0 0 0 0 0 0 0 0 0 0 0 0 0 0 0 0 127 0" result="hardAlpha"/>
<feOffset/>
<feGaussianBlur stdDeviation="37.92"/>
<feColorMatrix type="matrix" values="0 0 0 0 0.223529 0 0 0 0 0.796078 0 0 0 0 0.458824 0 0 0 1 0"/>
<feBlend mode="normal" in2="BackgroundImageFix" result="effect1_dropShadow_219_99"/>
<feColorMatrix in="SourceAlpha" type="matrix" values="0 0 0 0 0 0 0 0 0 0 0 0 0 0 0 0 0 0 127 0" result="hardAlpha"/>
<feOffset/>
<feGaussianBlur stdDeviation="75.84"/>
<feColorMatrix type="matrix" values="0 0 0 0 0.223529 0 0 0 0 0.796078 0 0 0 0 0.458824 0 0 0 1 0"/>
<feBlend mode="normal" in2="effect1_dropShadow_219_99" result="effect2_dropShadow_219_99"/>
<feBlend mode="normal" in="SourceGraphic" in2="effect2_dropShadow_219_99" result="shape"/>
</filter>
<clipPath id="clip0_219_99">
<rect width="697" height="627" fill="white"/>
</clipPath>
</defs>
</svg>
