<svg width="549" height="421" viewBox="0 0 549 421" fill="none" xmlns="http://www.w3.org/2000/svg">
<path d="M1.03668 357.381C-2.76612 309.137 4.04501 260.647 20.9912 215.318C37.9373 169.99 64.6071 128.923 99.1254 95.0065C133.644 61.0898 175.173 35.146 220.792 18.9994C266.412 2.8527 315.015 -3.10491 363.183 1.54541C411.352 6.19572 457.918 21.3411 499.606 45.9166C541.294 70.4921 577.093 103.901 604.485 143.795C631.878 183.689 650.199 229.099 658.161 276.832C666.123 324.565 663.532 373.463 650.57 420.088L570.866 397.93C580.591 362.947 582.535 326.258 576.561 290.442C570.587 254.627 556.84 220.555 536.287 190.622C515.734 160.689 488.874 135.622 457.594 117.182C426.315 98.7427 391.376 87.3788 355.234 83.8896C319.092 80.4004 282.624 84.8705 248.395 96.9857C214.166 109.101 183.006 128.567 157.106 154.015C131.206 179.464 111.195 210.277 98.4801 244.288C85.7651 278.299 80.6546 314.682 83.5079 350.88L1.03668 357.381Z" fill="url(#paint0_angular_9_1228)"/>
<defs>
<radialGradient id="paint0_angular_9_1228" cx="0" cy="0" r="1" gradientUnits="userSpaceOnUse" gradientTransform="translate(421.25 324.257) rotate(-109.733) scale(343.386)">
<stop offset="0.61" stop-color="#0F1C1E"/>
<stop offset="1" stop-color="#39CB75"/>
</radialGradient>
</defs>
</svg>
