<svg width="425" height="567" viewBox="0 0 425 567" fill="none" xmlns="http://www.w3.org/2000/svg">
<path d="M424.604 375.342C404.152 419.201 374.342 458.048 337.268 489.15C300.194 520.253 256.757 542.857 210.011 555.374C163.265 567.89 114.344 570.014 66.6889 561.598C19.0337 553.181 -26.1994 534.427 -65.83 506.656C-105.461 478.884 -138.527 442.768 -162.704 400.847C-186.88 358.927 -201.581 312.219 -205.772 264.008C-209.962 215.797 -203.541 167.253 -186.96 121.79C-170.379 76.3263 -144.041 35.0467 -109.796 0.853479L-51.3432 59.394C-77.0374 85.0499 -96.7998 116.023 -109.241 150.135C-121.682 184.247 -126.5 220.67 -123.355 256.844C-120.211 293.018 -109.181 328.063 -91.0406 359.517C-72.9003 390.971 -48.0901 418.07 -18.3544 438.907C11.3812 459.745 45.3205 473.816 81.0771 480.131C116.834 486.447 153.54 484.853 188.614 475.461C223.689 466.07 256.281 449.11 284.098 425.773C311.915 402.436 334.283 373.289 349.628 340.38L424.604 375.342Z" fill="url(#paint0_angular_9_1225)"/>
<defs>
<radialGradient id="paint0_angular_9_1225" cx="0" cy="0" r="1" gradientUnits="userSpaceOnUse" gradientTransform="translate(42.5801 197.202) rotate(99.7736) scale(343.386)">
<stop offset="0.61" stop-color="#0F1C1E"/>
<stop offset="1" stop-color="#39CB75"/>
</radialGradient>
</defs>
</svg>
