<svg width="342" height="191" viewBox="0 0 342 191" fill="none" xmlns="http://www.w3.org/2000/svg">
<g clip-path="url(#clip0_219_135)">
<path d="M108.547 39.3098C122.454 39.1904 134.04 38.7442 145.614 39.2365C148.63 39.3739 152.733 41.7461 154.293 44.3035C170.543 70.9935 186.466 97.8701 202.103 124.912C203.602 127.511 203.746 132.284 202.353 134.887C194.197 150.157 185.525 165.166 176.627 180.014C175.171 182.454 171.706 185.014 169.02 185.159C157.169 185.812 145.27 185.608 131.158 185.729C139.402 171.152 145.847 157.325 154.543 145.111C162.366 134.128 160.86 125.858 154.04 115.184C138.55 90.9567 124.386 65.9013 108.547 39.269L108.547 39.3098Z" fill="url(#paint0_radial_219_135)"/>
<path d="M119.582 94.0568C126.638 106.013 133.106 116.363 138.778 127.128C139.988 129.423 139.163 133.694 137.77 136.257C129.995 150.625 121.376 164.532 113.993 179.082C112.117 182.75 112.109 189.034 114.028 192.649C121.492 206.765 129.815 220.465 138.403 233.959C141.459 238.769 141.202 242.239 138.349 246.813C132.481 256.229 127.149 265.986 120.802 276.935C103.047 246.974 86.0427 218.352 69.2422 189.626C68.2636 187.941 68.0519 184.781 68.9609 183.141C85.4071 153.844 102.101 124.688 119.561 94.0569L119.582 94.0568Z" fill="url(#paint1_radial_219_135)"/>
<path d="M195.215 185.159C204.531 168.777 212.179 154.002 221.146 140.071C226.207 132.193 225.153 126.49 220.535 119.021C205.683 95.0529 191.566 70.6092 177.162 46.3517C175.997 44.3826 174.892 42.3519 172.872 38.7783C186.676 38.6599 199.104 38.3492 211.517 38.6303C213.61 38.6736 216.438 40.812 217.604 42.7402C234.085 70.122 250.444 97.566 266.414 125.238C267.831 127.715 267.338 132.473 265.884 135.178C258.01 149.834 249.724 164.309 241.128 178.563C239.49 181.29 235.865 184.361 232.974 184.549C221.145 185.324 209.224 185.039 195.215 185.159Z" fill="url(#paint2_radial_219_135)"/>
<path d="M302.74 297.084C289.756 297.195 277.556 297.708 265.407 297.098C262.636 296.958 259.242 293.458 257.515 290.677C249.071 277.141 240.851 263.44 233.059 249.511C230.185 244.374 226.947 242.402 220.98 242.596C204.964 243.141 188.904 243.402 172.879 242.845C169.042 242.715 164.013 239.943 161.791 236.799C155.561 227.978 150.494 218.33 144.353 207.977C147.529 207.46 149.657 206.83 151.79 206.791C181.818 206.452 211.845 206.052 241.857 206.161C245.549 206.17 250.9 208.185 252.647 211.006C269.206 237.898 285.174 265.161 301.263 292.322C301.888 293.378 302.022 294.723 302.719 297.043L302.74 297.084Z" fill="url(#paint3_radial_219_135)"/>
<path d="M86.9487 39.4533C94.2114 51.5305 100.574 61.514 106.181 71.8916C107.432 74.2272 106.997 78.5767 105.624 81.0368C86.2259 115.378 66.5807 149.578 46.7707 183.698C45.4569 185.974 42.3815 188.55 40.0235 188.673C27.8439 189.267 15.6373 189.106 1.27923 189.23C30.0582 138.935 57.968 90.1373 86.9692 39.4531L86.9487 39.4533Z" fill="url(#paint4_radial_219_135)"/>
<path d="M368.172 296.521C353.753 296.645 341.838 297.074 329.957 296.604C327.31 296.505 323.82 293.76 322.342 291.283C302.26 257.771 282.381 224.114 262.706 190.353C261.228 187.816 260.248 183.499 261.418 181.204C266.966 170.363 273.338 159.944 280.23 147.949C309.6 197.582 338.241 245.955 368.193 296.542L368.172 296.521Z" fill="url(#paint5_radial_219_135)"/>
</g>
<defs>
<radialGradient id="paint0_radial_219_135" cx="0" cy="0" r="1" gradientUnits="userSpaceOnUse" gradientTransform="translate(152.649 39.1056) rotate(89.5084) scale(250.943 780.701)">
<stop offset="0.325" stop-color="#35BA6C" stop-opacity="0.83"/>
<stop offset="1" stop-color="#0E562C"/>
</radialGradient>
<radialGradient id="paint1_radial_219_135" cx="0" cy="0" r="1" gradientUnits="userSpaceOnUse" gradientTransform="translate(152.649 39.1056) rotate(89.5084) scale(250.943 780.701)">
<stop offset="0.325" stop-color="#35BA6C" stop-opacity="0.83"/>
<stop offset="1" stop-color="#0E562C"/>
</radialGradient>
<radialGradient id="paint2_radial_219_135" cx="0" cy="0" r="1" gradientUnits="userSpaceOnUse" gradientTransform="translate(152.649 39.1056) rotate(89.5084) scale(250.943 780.701)">
<stop offset="0.325" stop-color="#35BA6C" stop-opacity="0.83"/>
<stop offset="1" stop-color="#0E562C"/>
</radialGradient>
<radialGradient id="paint3_radial_219_135" cx="0" cy="0" r="1" gradientUnits="userSpaceOnUse" gradientTransform="translate(152.649 39.1056) rotate(89.5084) scale(250.943 780.701)">
<stop offset="0.325" stop-color="#35BA6C" stop-opacity="0.83"/>
<stop offset="1" stop-color="#0E562C"/>
</radialGradient>
<radialGradient id="paint4_radial_219_135" cx="0" cy="0" r="1" gradientUnits="userSpaceOnUse" gradientTransform="translate(152.649 39.1056) rotate(89.5084) scale(250.943 780.701)">
<stop offset="0.325" stop-color="#35BA6C" stop-opacity="0.83"/>
<stop offset="1" stop-color="#0E562C"/>
</radialGradient>
<radialGradient id="paint5_radial_219_135" cx="0" cy="0" r="1" gradientUnits="userSpaceOnUse" gradientTransform="translate(152.649 39.1056) rotate(89.5084) scale(250.943 780.701)">
<stop offset="0.325" stop-color="#35BA6C" stop-opacity="0.83"/>
<stop offset="1" stop-color="#0E562C"/>
</radialGradient>
<clipPath id="clip0_219_135">
<rect width="342" height="191" fill="white"/>
</clipPath>
</defs>
</svg>
