<svg width="150" height="370" viewBox="0 0 150 370" fill="none" xmlns="http://www.w3.org/2000/svg">
<path d="M3.49711 260.831C3.31364 246.925 2.81394 235.341 3.25295 223.765C3.37636 220.748 5.72968 216.634 8.27981 215.062C34.8946 198.69 61.6974 182.643 88.6671 166.881C91.2589 165.37 96.0311 165.204 98.6406 166.585C113.948 174.671 128.997 183.273 143.886 192.103C146.333 193.547 148.908 197.001 149.066 199.686C149.773 211.534 149.624 223.434 149.811 237.545C135.196 229.368 121.339 222.987 109.085 214.348C98.0664 206.575 89.8029 208.12 79.1612 214.989C55.0051 230.59 30.0154 244.87 3.45637 260.831L3.49711 260.831Z" fill="url(#paint0_radial_219_100)"/>
<path d="M58.1927 249.544C70.1166 242.432 80.4364 235.916 91.1749 230.195C93.4644 228.975 97.7394 229.78 100.308 231.161C114.713 238.869 128.659 247.424 143.242 254.74C146.919 256.599 153.203 256.578 156.81 254.643C170.891 247.113 184.553 238.727 198.007 230.078C202.802 226.999 206.274 227.24 210.861 230.072C220.303 235.897 230.085 241.183 241.064 247.48C211.184 265.373 182.641 282.509 153.993 299.442C152.313 300.428 149.153 300.655 147.509 299.753C118.137 283.442 88.9045 266.883 58.1929 249.564L58.1927 249.544Z" fill="url(#paint1_radial_219_100)"/>
<path d="M148.945 173.491C132.521 164.251 117.71 156.671 103.738 147.768C95.8369 142.744 90.1381 143.824 82.691 148.476C58.7917 163.439 34.4133 177.669 10.2225 192.184C8.2588 193.358 6.23319 194.472 2.66902 196.509C2.48691 182.706 2.1189 170.279 2.34278 157.865C2.37639 155.772 4.5017 152.934 6.42455 151.76C33.73 135.152 61.0983 118.667 88.6961 102.569C91.1665 101.141 95.9267 101.612 98.639 103.053C113.331 110.86 127.844 119.079 142.137 127.609C144.872 129.234 147.96 132.845 148.161 135.735C148.991 147.561 148.76 159.482 148.945 173.491Z" fill="url(#paint2_radial_219_100)"/>
<path d="M260.372 65.4508C260.544 78.4339 261.113 90.6323 260.559 102.784C260.432 105.555 256.947 108.965 254.175 110.705C240.678 119.211 227.015 127.495 213.122 135.35C207.998 138.249 206.041 141.495 206.263 147.462C206.882 163.475 207.216 179.533 206.734 195.561C206.621 199.399 203.872 204.44 200.739 206.677C191.946 212.947 182.322 218.059 171.998 224.247C171.466 221.074 170.826 218.949 170.777 216.816C170.3 186.79 169.761 156.765 169.732 126.753C169.724 123.06 171.714 117.7 174.527 115.94C201.342 99.2572 228.532 83.1643 255.618 66.9495C256.67 66.3202 258.015 66.1794 260.332 65.4719L260.372 65.4508Z" fill="url(#paint3_radial_219_100)"/>
<path d="M3.74027 282.428C15.7839 275.11 25.7379 268.701 36.0896 263.046C38.4193 261.785 42.7708 262.199 45.2372 263.562C79.6672 282.801 113.958 302.288 148.169 321.941C150.451 323.244 153.041 326.307 153.175 328.665C153.825 340.841 153.721 353.049 153.91 367.406C103.483 338.859 54.5574 311.175 3.74 282.408L3.74027 282.428Z" fill="url(#paint4_radial_219_100)"/>
<path d="M259.509 0.022008C259.699 14.4409 260.182 26.3532 259.768 38.2363C259.68 40.8837 256.952 44.3866 254.482 45.8757C221.063 66.1127 187.498 86.1464 153.828 105.976C151.297 107.466 146.985 108.467 144.684 107.307C133.818 101.809 123.37 95.4853 111.343 88.6487C160.84 59.0503 209.081 30.1866 259.529 0.00127119L259.509 0.022008Z" fill="url(#paint5_radial_219_100)"/>
<defs>
<radialGradient id="paint0_radial_219_100" cx="0" cy="0" r="1" gradientUnits="userSpaceOnUse" gradientTransform="translate(3.08953 216.731) rotate(-0.755889) scale(250.943 780.701)">
<stop offset="0.325" stop-color="#35BA6C" stop-opacity="0.83"/>
<stop offset="1" stop-color="#0E562C"/>
</radialGradient>
<radialGradient id="paint1_radial_219_100" cx="0" cy="0" r="1" gradientUnits="userSpaceOnUse" gradientTransform="translate(3.08953 216.731) rotate(-0.755889) scale(250.943 780.701)">
<stop offset="0.325" stop-color="#35BA6C" stop-opacity="0.83"/>
<stop offset="1" stop-color="#0E562C"/>
</radialGradient>
<radialGradient id="paint2_radial_219_100" cx="0" cy="0" r="1" gradientUnits="userSpaceOnUse" gradientTransform="translate(3.08953 216.731) rotate(-0.755889) scale(250.943 780.701)">
<stop offset="0.325" stop-color="#35BA6C" stop-opacity="0.83"/>
<stop offset="1" stop-color="#0E562C"/>
</radialGradient>
<radialGradient id="paint3_radial_219_100" cx="0" cy="0" r="1" gradientUnits="userSpaceOnUse" gradientTransform="translate(3.08953 216.731) rotate(-0.755889) scale(250.943 780.701)">
<stop offset="0.325" stop-color="#35BA6C" stop-opacity="0.83"/>
<stop offset="1" stop-color="#0E562C"/>
</radialGradient>
<radialGradient id="paint4_radial_219_100" cx="0" cy="0" r="1" gradientUnits="userSpaceOnUse" gradientTransform="translate(3.08953 216.731) rotate(-0.755889) scale(250.943 780.701)">
<stop offset="0.325" stop-color="#35BA6C" stop-opacity="0.83"/>
<stop offset="1" stop-color="#0E562C"/>
</radialGradient>
<radialGradient id="paint5_radial_219_100" cx="0" cy="0" r="1" gradientUnits="userSpaceOnUse" gradientTransform="translate(3.08953 216.731) rotate(-0.755889) scale(250.943 780.701)">
<stop offset="0.325" stop-color="#35BA6C" stop-opacity="0.83"/>
<stop offset="1" stop-color="#0E562C"/>
</radialGradient>
</defs>
</svg>
