<svg width="427" height="536" viewBox="0 0 427 536" fill="none" xmlns="http://www.w3.org/2000/svg">
<g opacity="0.59">
<mask id="mask0_22_4233" style="mask-type:alpha" maskUnits="userSpaceOnUse" x="197" y="0" width="339" height="536">
<mask id="mask1_22_4233" style="mask-type:luminance" maskUnits="userSpaceOnUse" x="0" y="0" width="536" height="536">
<path d="M531.554 3.551e-06L535.551 531.554L3.99683 535.551L-4.19993e-06 3.99684L531.554 3.551e-06Z" fill="white"/>
</mask>
<g mask="url(#mask1_22_4233)">
<path style="mix-blend-mode:color-dodge" d="M363.984 545.952L395.065 545.718L394.958 531.429L529.457 530.418L529.467 531.778L396.337 532.779L396.444 547.068L364.004 547.312C363.712 548.392 362.742 549.196 361.561 549.205C360.155 549.216 359.002 548.081 358.992 546.665C358.981 545.249 360.116 544.106 361.523 544.095C362.695 544.086 363.685 544.876 363.993 545.952L363.984 545.952Z" fill="url(#paint0_linear_22_4233)"/>
<path style="mix-blend-mode:color-dodge" d="M379.214 526.334L379.321 540.623L328.7 541.004L328.583 525.356L368.674 525.054L368.735 533.164L345.886 533.336C345.594 534.417 344.625 535.221 343.444 535.23C342.037 535.24 340.885 534.105 340.874 532.689C340.863 531.274 341.999 530.13 343.405 530.12C344.577 530.111 345.568 530.901 345.876 531.977L367.366 531.815L367.325 526.424L329.952 526.705L330.05 539.634L377.952 539.274L377.844 524.985L492.606 524.122L492.617 525.482L379.223 526.334L379.214 526.334Z" fill="url(#paint1_linear_22_4233)"/>
<path style="mix-blend-mode:color-dodge" d="M249.207 412.646L295.721 412.297L312.101 428.432L403.545 427.745L403.849 468.137L574.286 466.855L574.296 468.215L402.5 469.506L402.196 429.114L311.54 429.796L295.15 413.651L249.207 413.997C248.916 415.077 247.946 415.881 246.774 415.89C245.368 415.901 244.216 414.765 244.205 413.35C244.194 411.934 245.33 410.791 246.736 410.78C247.908 410.771 248.898 411.561 249.197 412.637L249.207 412.646Z" fill="url(#paint2_linear_22_4233)"/>
<path style="mix-blend-mode:color-dodge" d="M202.862 270.903L251.936 270.534L268.316 286.67L330.282 286.204L330.189 273.79L418.482 273.126L430.808 286.198L468.518 285.914L468.41 271.494L530 271.031C530.292 269.95 531.262 269.146 532.434 269.137C533.849 269.127 535.002 270.262 535.012 271.668C535.023 273.075 533.888 274.237 532.472 274.247C531.3 274.256 530.319 273.466 530.011 272.39L469.789 272.843L469.897 287.264L430.237 287.562L417.902 274.49L331.558 275.139L331.652 287.553L267.764 288.033L251.383 271.898L202.891 272.262C202.608 273.361 201.63 274.184 200.448 274.193C199.042 274.204 197.89 273.069 197.879 271.662C197.868 270.256 199.004 269.094 200.41 269.083C201.573 269.075 202.544 269.846 202.862 270.903Z" fill="url(#paint3_linear_22_4233)"/>
<path style="mix-blend-mode:color-dodge" d="M211.512 265.296L252.025 264.992L268.406 281.137L323.94 280.719L323.832 266.43L421.915 265.693L436.461 279.873L461.832 279.682L461.725 265.365L552.353 264.684C552.645 263.603 553.614 262.799 554.796 262.79C556.202 262.779 557.355 263.915 557.365 265.331C557.376 266.746 556.24 267.889 554.834 267.9C553.662 267.909 552.672 267.119 552.363 266.043L463.095 266.714L463.202 281.032L435.909 281.237L421.362 267.056L325.202 267.779L325.309 282.068L267.853 282.5L251.473 266.365L211.606 266.664C211.371 267.82 210.356 268.69 209.127 268.699C207.721 268.71 206.568 267.574 206.558 266.168C206.547 264.762 207.683 263.6 209.089 263.589C210.214 263.581 211.157 264.305 211.512 265.296Z" fill="url(#paint4_linear_22_4233)"/>
<path style="mix-blend-mode:color-dodge" d="M260.557 407.029L298.464 406.744L314.854 422.879L409.748 422.166L410.052 462.558L574.244 461.323L574.255 462.683L408.693 463.928L408.39 423.536L314.292 424.243L297.912 408.098L260.567 408.379C260.275 409.459 259.306 410.264 258.125 410.273C256.718 410.283 255.556 409.148 255.546 407.742C255.535 406.335 256.671 405.183 258.086 405.172C259.258 405.163 260.249 405.953 260.557 407.029Z" fill="url(#paint5_linear_22_4233)"/>
<path style="mix-blend-mode:color-dodge" d="M304.938 398.603L351.443 398.253L367.824 414.389L431.637 413.909L431.529 399.62L549.086 398.736L549.096 400.096L432.908 400.97L433.016 415.259L367.281 415.753L350.9 399.617L304.958 399.963C304.666 401.043 303.697 401.847 302.525 401.856C301.109 401.867 299.957 400.732 299.946 399.325C299.935 397.919 301.071 396.757 302.486 396.746C303.658 396.737 304.64 397.527 304.948 398.603L304.938 398.603Z" fill="url(#paint6_linear_22_4233)"/>
<path style="mix-blend-mode:color-dodge" d="M316.279 392.976L354.186 392.691L370.576 408.827L426.11 408.409L426.003 394.12L551.829 393.174L551.839 394.534L427.372 395.47L427.48 409.759L370.024 410.191L353.634 394.055L316.289 394.336C315.997 395.416 315.028 396.221 313.847 396.23C312.441 396.24 311.288 395.105 311.277 393.698C311.267 392.292 312.402 391.14 313.809 391.129C314.981 391.12 315.971 391.91 316.279 392.986L316.279 392.976Z" fill="url(#paint7_linear_22_4233)"/>
<path style="mix-blend-mode:color-dodge" d="M318.492 386.781L356.409 386.495L372.789 402.631L419.669 402.279L419.562 387.99L554.051 386.978L554.061 388.338L420.931 389.339L421.039 403.628L372.237 403.995L355.856 387.85L318.502 388.131C318.21 389.211 317.241 390.016 316.06 390.024C314.654 390.035 313.501 388.9 313.49 387.484C313.48 386.068 314.615 384.925 316.022 384.914C317.194 384.906 318.184 385.695 318.492 386.771L318.492 386.781Z" fill="url(#paint8_linear_22_4233)"/>
<path style="mix-blend-mode:color-dodge" d="M475.628 452.06L459.247 435.915L426.947 436.158L427.005 443.865C428.085 444.157 428.89 445.126 428.899 446.307C428.909 447.714 427.774 448.875 426.367 448.886C424.961 448.897 423.799 447.761 423.789 446.346C423.78 445.174 424.569 444.183 425.645 443.875L425.577 434.808L459.8 434.551L476.18 450.687L531.714 450.269L531.606 435.98L657.432 435.034L657.443 436.394L532.976 437.329L533.084 451.618L475.627 452.051L475.628 452.06Z" fill="url(#paint9_linear_22_4233)"/>
<path style="mix-blend-mode:color-dodge" d="M477.85 445.864L461.47 429.728L418.809 430.049C418.517 431.13 417.548 431.934 416.376 431.943C414.96 431.953 413.808 430.818 413.797 429.402C413.786 427.987 414.922 426.834 416.337 426.823C417.509 426.815 418.49 427.604 418.799 428.68L462.013 428.355L478.393 444.491L525.273 444.139L525.165 429.85L659.655 428.838L659.665 430.198L526.535 431.199L526.643 445.488L477.85 445.855L477.85 445.864Z" fill="url(#paint10_linear_22_4233)"/>
<path style="mix-blend-mode:color-dodge" d="M372.162 499.983L372.068 487.569L460.362 486.905L472.697 499.977L510.398 499.694L510.289 485.274L571.871 484.81C572.163 483.73 573.132 482.926 574.313 482.917C575.72 482.906 576.872 484.042 576.883 485.448C576.893 486.854 575.758 488.007 574.351 488.017C573.179 488.026 572.189 487.237 571.881 486.161L511.659 486.613L511.767 501.034L472.107 501.332L459.781 488.26L373.438 488.909L373.531 501.323L309.643 501.803L293.263 485.668L242.314 486.051L242.303 484.691L293.815 484.304L310.195 500.44L372.161 499.974L372.162 499.983Z" fill="url(#paint11_linear_22_4233)"/>
<path style="mix-blend-mode:color-dodge" d="M365.819 494.489L365.712 480.2L463.785 479.463L478.331 493.643L503.703 493.452L503.595 479.135L594.233 478.454C594.525 477.373 595.494 476.569 596.666 476.56C598.082 476.55 599.234 477.685 599.245 479.101C599.255 480.516 598.12 481.659 596.704 481.67C595.532 481.679 594.542 480.889 594.243 479.813L504.974 480.485L505.082 494.802L477.798 495.007L463.251 480.826L367.091 481.549L367.198 495.838L309.742 496.27L293.352 480.135L251.001 480.453L250.991 479.094L293.914 478.771L310.294 494.907L365.829 494.489L365.819 494.489Z" fill="url(#paint12_linear_22_4233)"/>
<path style="mix-blend-mode:color-dodge" d="M260.795 473.591L298.711 473.306L315.092 489.442L361.972 489.089L361.864 474.8L574.334 473.203L574.344 474.562L363.225 476.15L363.332 490.439L314.53 490.805L298.15 474.67L260.796 474.951C260.504 476.031 259.535 476.835 258.363 476.844C256.956 476.855 255.804 475.72 255.793 474.313C255.783 472.907 256.918 471.745 258.324 471.734C259.496 471.725 260.487 472.515 260.786 473.591L260.795 473.591Z" fill="url(#paint13_linear_22_4233)"/>
<path style="mix-blend-mode:color-dodge" d="M382.63 504.246L449.752 503.741L466.133 519.877L529.946 519.397L529.838 505.108L647.385 504.224L647.395 505.584L531.208 506.457L531.315 520.746L465.58 521.24L449.2 505.105L382.64 505.605C382.348 506.686 381.379 507.49 380.197 507.499C378.791 507.509 377.639 506.374 377.628 504.958C377.617 503.543 378.753 502.4 380.159 502.389C381.331 502.38 382.322 503.17 382.63 504.246Z" fill="url(#paint14_linear_22_4233)"/>
<path style="mix-blend-mode:color-dodge" d="M395.111 501.855C393.695 501.865 392.542 500.73 392.532 499.314C392.521 497.898 393.656 496.746 395.072 496.735C396.244 496.726 397.234 497.516 397.543 498.592L452.495 498.179L468.876 514.315L524.419 513.897L524.312 499.608L650.138 498.662L650.148 500.021L525.681 500.957L525.789 515.246L468.333 515.678L451.952 499.542L397.562 499.951C397.27 501.032 396.292 501.836 395.12 501.845L395.111 501.855Z" fill="url(#paint15_linear_22_4233)"/>
<path style="mix-blend-mode:color-dodge" d="M470.546 509.482L454.166 493.347L410.642 493.674C410.35 494.754 409.381 495.559 408.209 495.568C406.794 495.578 405.641 494.443 405.63 493.037C405.62 491.63 406.755 490.468 408.171 490.458C409.343 490.449 410.324 491.238 410.632 492.314L454.718 491.983L471.098 508.119L517.978 507.766L517.871 493.477L652.36 492.466L652.37 493.825L519.241 494.826L519.348 509.116L470.546 509.482Z" fill="url(#paint16_linear_22_4233)"/>
<path style="mix-blend-mode:color-dodge" d="M264.266 324.14L310.771 323.791L327.151 339.927L390.964 339.447L390.856 325.158L508.422 324.274L508.432 325.633L392.245 326.507L392.352 340.796L326.617 341.29L310.228 325.154L264.285 325.5C263.993 326.58 263.024 327.385 261.852 327.394C260.436 327.404 259.284 326.269 259.273 324.862C259.263 323.456 260.398 322.304 261.814 322.293C262.986 322.284 263.967 323.074 264.275 324.15L264.266 324.14Z" fill="url(#paint17_linear_22_4233)"/>
<path style="mix-blend-mode:color-dodge" d="M275.607 318.523L313.514 318.238L329.903 334.374L385.437 333.956L385.33 319.667L511.165 318.721L511.175 320.08L386.709 321.016L386.816 335.305L329.36 335.737L312.98 319.602L275.626 319.883C275.334 320.963 274.365 321.767 273.184 321.776C271.768 321.787 270.625 320.651 270.614 319.245C270.604 317.839 271.739 316.677 273.145 316.666C274.317 316.657 275.308 317.447 275.616 318.523L275.607 318.523Z" fill="url(#paint18_linear_22_4233)"/>
<path style="mix-blend-mode:color-dodge" d="M277.829 312.318L315.745 312.033L332.126 328.169L379.006 327.816L378.898 313.527L513.388 312.516L513.398 313.875L380.268 314.876L380.375 329.165L331.573 329.532L315.193 313.397L277.849 313.677C277.557 314.758 276.587 315.562 275.406 315.571C274 315.582 272.838 314.446 272.827 313.04C272.817 311.634 273.952 310.472 275.368 310.461C276.54 310.452 277.53 311.242 277.838 312.318L277.829 312.318Z" fill="url(#paint19_linear_22_4233)"/>
<path style="mix-blend-mode:color-dodge" d="M394.192 367.186L394.377 391.836C395.458 392.128 396.262 393.097 396.271 394.278C396.281 395.694 395.146 396.847 393.74 396.857C392.333 396.868 391.171 395.733 391.161 394.317C391.152 393.145 391.942 392.154 393.018 391.846L392.822 365.837L416.384 365.66L432.764 381.796L496.587 381.316L496.479 367.027L614.026 366.143L614.036 367.502L497.849 368.376L497.956 382.665L432.221 383.159L415.841 367.024L394.201 367.186L394.192 367.186Z" fill="url(#paint20_linear_22_4233)"/>
<path style="mix-blend-mode:color-dodge" d="M491.051 375.825L490.943 361.536L616.769 360.59L616.779 361.95L492.313 362.886L492.42 377.175L434.964 377.607L418.584 361.471L386.284 361.714L386.436 381.947C387.516 382.239 388.321 383.208 388.33 384.39C388.34 385.796 387.205 386.948 385.798 386.959C384.392 386.97 383.24 385.834 383.229 384.428C383.22 383.256 384.01 382.265 385.086 381.957L384.923 360.364L419.146 360.107L435.526 376.252L491.06 375.835L491.051 375.825Z" fill="url(#paint21_linear_22_4233)"/>
<path style="mix-blend-mode:color-dodge" d="M361.352 354.353L421.349 353.902L437.73 370.038L484.61 369.685L484.502 355.396L618.992 354.385L619.002 355.744L485.872 356.745L485.979 371.034L437.177 371.401L420.797 355.266L361.363 355.713C361.071 356.793 360.102 357.597 358.93 357.606C357.514 357.617 356.361 356.482 356.351 355.075C356.34 353.669 357.475 352.507 358.891 352.496C360.063 352.487 361.044 353.277 361.352 354.353Z" fill="url(#paint22_linear_22_4233)"/>
<path style="mix-blend-mode:color-dodge" d="M439.036 329.315L439.097 337.425L416.248 337.597C415.956 338.678 414.987 339.482 413.815 339.491C412.408 339.501 411.247 338.366 411.236 336.96C411.225 335.553 412.361 334.391 413.776 334.381C414.948 334.372 415.929 335.162 416.238 336.238L437.727 336.076L437.687 330.685L400.314 330.966L400.411 343.895L448.313 343.535L448.206 329.246L562.968 328.383L562.978 329.743L449.585 330.595L449.692 344.884L399.071 345.265L398.954 329.616L439.046 329.315L439.036 329.315Z" fill="url(#paint23_linear_22_4233)"/>
<path style="mix-blend-mode:color-dodge" d="M207.336 198.867L253.841 198.517L270.222 214.653L361.675 213.965L361.979 254.357L532.416 253.075L532.426 254.435L360.63 255.727L360.326 215.335L269.679 216.017L253.298 199.881L207.356 200.226C207.064 201.307 206.095 202.111 204.923 202.12C203.517 202.13 202.364 200.995 202.353 199.579C202.343 198.164 203.478 197.02 204.885 197.01C206.057 197.001 207.047 197.791 207.346 198.867L207.336 198.867Z" fill="url(#paint24_linear_22_4233)"/>
<path style="mix-blend-mode:color-dodge" d="M218.677 193.249L256.594 192.964L272.974 209.1L367.869 208.386L368.172 248.778L532.374 247.544L532.385 248.903L366.823 250.148L366.519 209.756L272.422 210.464L256.041 194.319L218.687 194.599C218.396 195.68 217.426 196.484 216.254 196.493C214.839 196.504 213.696 195.368 213.685 193.962C213.674 192.556 214.81 191.403 216.216 191.393C217.388 191.384 218.369 192.173 218.677 193.249Z" fill="url(#paint25_linear_22_4233)"/>
<path style="mix-blend-mode:color-dodge" d="M389.86 242.474C389.851 241.302 390.64 240.311 391.716 240.012L391.615 226.52L415.177 226.343L431.557 242.479L495.38 241.999L495.272 227.71L612.819 226.826L612.829 228.186L496.633 229.059L496.74 243.348L431.005 243.843L414.625 227.707L392.985 227.87L393.076 240.002C394.157 240.294 394.961 241.263 394.97 242.435C394.98 243.851 393.845 245.003 392.429 245.014C391.013 245.025 389.87 243.889 389.86 242.474Z" fill="url(#paint26_linear_22_4233)"/>
<path style="mix-blend-mode:color-dodge" d="M433.748 238.28L417.368 222.145L385.067 222.388L385.125 230.095C386.206 230.387 387.01 231.356 387.019 232.537C387.029 233.943 385.894 235.105 384.488 235.116C383.081 235.126 381.92 233.991 381.909 232.575C381.9 231.403 382.69 230.422 383.766 230.105L383.698 221.038L417.92 220.781L434.3 236.917L489.834 236.499L489.727 222.21L615.562 221.264L615.572 222.623L491.106 223.559L491.213 237.848L433.757 238.28L433.748 238.28Z" fill="url(#paint27_linear_22_4233)"/>
<path style="mix-blend-mode:color-dodge" d="M435.97 232.085L419.59 215.949L376.939 216.27C376.647 217.35 375.668 218.154 374.496 218.163C373.09 218.174 371.937 217.039 371.927 215.623C371.916 214.207 373.051 213.064 374.458 213.053C375.63 213.045 376.62 213.834 376.928 214.91L420.142 214.585L436.523 230.721L483.403 230.368L483.295 216.079L617.785 215.068L617.795 216.428L484.665 217.429L484.773 231.727L435.97 232.094L435.97 232.085Z" fill="url(#paint28_linear_22_4233)"/>
<path style="mix-blend-mode:color-dodge" d="M397.855 205.948L397.738 190.3L437.829 189.998L437.89 198.108L415.041 198.28C414.749 199.361 413.78 200.165 412.599 200.174C411.192 200.184 410.04 199.049 410.029 197.643C410.019 196.236 411.154 195.084 412.56 195.073C413.732 195.064 414.723 195.854 415.031 196.93L436.521 196.768L436.48 191.377L399.107 191.658L399.205 204.588L447.107 204.228L446.999 189.939L561.761 189.076L561.772 190.435L448.378 191.288L448.486 205.577L397.865 205.957L397.855 205.948Z" fill="url(#paint29_linear_22_4233)"/>
<path style="mix-blend-mode:color-dodge" d="M218.915 259.812L256.832 259.526L273.212 275.662L320.092 275.31L319.985 261.021L532.464 259.423L532.474 260.783L321.354 262.37L321.462 276.659L272.66 277.026L256.279 260.89L218.925 261.171C218.633 262.252 217.664 263.056 216.492 263.065C215.086 263.075 213.934 261.94 213.923 260.524C213.912 259.108 215.048 257.965 216.454 257.955C217.626 257.946 218.607 258.736 218.915 259.812Z" fill="url(#paint30_linear_22_4233)"/>
<path style="mix-blend-mode:color-dodge" d="M340.759 290.476L407.882 289.971L424.262 306.107L488.076 305.627L487.968 291.338L605.515 290.454L605.525 291.813L489.338 292.687L489.445 306.976L423.71 307.47L407.33 291.335L340.779 291.835C340.487 292.916 339.518 293.72 338.337 293.729C336.93 293.739 335.778 292.604 335.767 291.188C335.756 289.772 336.892 288.62 338.298 288.609C339.47 288.601 340.461 289.39 340.769 290.466L340.759 290.476Z" fill="url(#paint31_linear_22_4233)"/>
<path style="mix-blend-mode:color-dodge" d="M353.24 288.075C351.824 288.086 350.672 286.95 350.661 285.535C350.651 284.119 351.786 282.976 353.202 282.965C354.374 282.956 355.364 283.746 355.663 284.822L410.616 284.409L426.996 300.544L482.53 300.127L482.423 285.838L608.267 284.892L608.278 286.251L483.802 287.187L483.909 301.476L426.453 301.908L410.073 285.772L355.673 286.181C355.381 287.262 354.412 288.066 353.24 288.075Z" fill="url(#paint32_linear_22_4233)"/>
<path style="mix-blend-mode:color-dodge" d="M428.676 295.712L412.286 279.577L368.763 279.904C368.471 280.984 367.502 281.789 366.33 281.798C364.914 281.808 363.761 280.673 363.751 279.267C363.74 277.86 364.875 276.698 366.291 276.688C367.463 276.679 368.444 277.468 368.752 278.544L412.838 278.213L429.219 294.349L476.099 293.996L475.991 279.707L610.481 278.696L610.491 280.055L477.361 281.056L477.468 295.345L428.666 295.712L428.676 295.712Z" fill="url(#paint33_linear_22_4233)"/>
<path style="mix-blend-mode:color-dodge" d="M318.362 77.5904L364.876 77.2407L381.256 93.3764L472.7 92.6888L473.004 133.081L643.441 131.799L643.451 133.159L471.655 134.45L471.351 94.0586L380.694 94.7402L364.305 78.6046L318.362 78.95C318.071 80.0305 317.101 80.8348 315.929 80.8436C314.523 80.8542 313.361 79.719 313.351 78.3032C313.34 76.8874 314.475 75.7443 315.891 75.7337C317.063 75.7249 318.053 76.5144 318.352 77.5905L318.362 77.5904Z" fill="url(#paint34_linear_22_4233)"/>
<path style="mix-blend-mode:color-dodge" d="M329.702 71.9636L367.609 71.6786L383.999 87.8143L478.894 87.1007L479.197 127.493L643.399 126.258L643.409 127.617L477.848 128.862L477.544 88.4705L383.447 89.178L367.066 73.0423L329.722 73.3231C329.43 74.4036 328.461 75.2078 327.279 75.2167C325.873 75.2273 324.711 74.0921 324.701 72.6857C324.69 71.2793 325.825 70.1268 327.241 70.1162C328.413 70.1074 329.404 70.8969 329.712 71.9729L329.702 71.9636Z" fill="url(#paint35_linear_22_4233)"/>
<path style="mix-blend-mode:color-dodge" d="M374.084 63.5379L420.589 63.1883L436.969 79.3334L500.791 78.8535L500.684 64.5644L618.231 63.6806L618.241 65.0401L502.063 65.9137L502.171 80.2027L436.435 80.697L420.055 64.5612L374.113 64.9067C373.821 65.9872 372.852 66.7915 371.68 66.8003C370.264 66.8109 369.111 65.6757 369.101 64.2693C369.09 62.8629 370.226 61.701 371.641 61.6903C372.813 61.6815 373.794 62.4712 374.103 63.5471L374.084 63.5379Z" fill="url(#paint36_linear_22_4233)"/>
<path style="mix-blend-mode:color-dodge" d="M385.434 57.9204L423.341 57.6354L439.721 73.7711L495.255 73.3536L495.148 59.0645L620.983 58.1184L620.994 59.4779L496.527 60.4138L496.635 74.7028L439.178 75.1348L422.798 58.9897L385.454 59.2705C385.162 60.351 384.192 61.1553 383.011 61.1642C381.605 61.1747 380.452 60.0395 380.442 58.6331C380.431 57.2267 381.566 56.0742 382.973 56.0636C384.145 56.0548 385.135 56.8444 385.443 57.9204L385.434 57.9204Z" fill="url(#paint37_linear_22_4233)"/>
<path style="mix-blend-mode:color-dodge" d="M387.647 51.7153L425.564 51.4302L441.944 67.566L488.824 67.2135L488.716 52.9244L623.206 51.9132L623.216 53.2727L490.086 54.2737L490.194 68.5627L441.392 68.9297L425.011 52.7846L387.657 53.0655C387.365 54.146 386.396 54.9503 385.215 54.9591C383.808 54.9697 382.656 53.8345 382.645 52.4187C382.635 51.0029 383.77 49.8598 385.176 49.8492C386.348 49.8404 387.339 50.63 387.647 51.7059L387.647 51.7153Z" fill="url(#paint38_linear_22_4233)"/>
<path style="mix-blend-mode:color-dodge" d="M441.307 164.918L441.214 152.504L529.517 151.84L541.851 164.912L579.562 164.628L579.453 150.208L641.035 149.745C641.327 148.665 642.296 147.86 643.477 147.851C644.884 147.841 646.036 148.976 646.047 150.383C646.057 151.789 644.922 152.941 643.516 152.952C642.344 152.961 641.353 152.171 641.045 151.095L580.814 151.548L580.922 165.968L541.262 166.267L528.936 153.195L442.593 153.844L442.686 166.258L378.798 166.738L362.418 150.602L313.784 150.968C313.686 151.644 312.412 152.976 311.022 151.448C310.89 151.309 310.642 150.804 310.629 150.354C310.627 150.007 310.893 149.293 311.033 149.132C312.242 147.82 313.685 148.953 313.773 149.43C313.783 149.487 313.849 149.608 313.849 149.608L362.97 149.239L379.35 165.374L441.316 164.908L441.307 164.918Z" fill="url(#paint39_linear_22_4233)"/>
<path style="mix-blend-mode:color-dodge" d="M434.974 159.433L434.867 145.144L532.94 144.407L547.486 158.587L572.857 158.397L572.75 144.079L663.378 143.398C663.67 142.317 664.639 141.513 665.811 141.504C667.227 141.494 668.38 142.629 668.39 144.045C668.401 145.461 667.266 146.604 665.85 146.614C664.678 146.623 663.687 145.834 663.388 144.757L574.12 145.429L574.227 159.746L546.943 159.951L532.397 145.771L436.236 146.494L436.344 160.783L378.888 161.215L362.498 145.079L320.147 145.397L320.136 144.038L363.06 143.715L379.44 159.851L434.974 159.433Z" fill="url(#paint40_linear_22_4233)"/>
<path style="mix-blend-mode:color-dodge" d="M329.94 138.526L367.857 138.241L384.237 154.376L431.117 154.024L431.01 139.735L643.489 138.137L643.499 139.497L432.379 141.084L432.487 155.373L383.685 155.74L367.305 139.604L329.951 139.885C329.659 140.966 328.689 141.77 327.517 141.779C326.102 141.79 324.959 140.654 324.948 139.248C324.937 137.841 326.073 136.689 327.479 136.678C328.651 136.67 329.642 137.459 329.94 138.535L329.94 138.526Z" fill="url(#paint41_linear_22_4233)"/>
<path style="mix-blend-mode:color-dodge" d="M451.785 169.19L518.907 168.685L535.288 184.821L599.101 184.341L598.993 170.052L716.54 169.168L716.55 170.528L600.354 171.401L600.461 185.69L534.735 186.185L534.66 186.11L391.029 187.19L391.136 201.479L325.401 201.973L309.021 185.838L263.078 186.183C262.786 187.264 261.817 188.068 260.645 188.077C259.239 188.087 258.077 186.952 258.066 185.546C258.056 184.139 259.191 182.977 260.607 182.967C261.779 182.958 262.76 183.748 263.068 184.824L309.573 184.474L325.953 200.619L389.766 200.139L389.659 185.85L533.29 184.77L529.077 180.62L385.493 181.7L385.6 195.989L328.144 196.421L311.764 180.276L274.41 180.556C274.118 181.637 273.149 182.441 271.977 182.45C270.57 182.461 269.408 181.325 269.398 179.919C269.387 178.513 270.523 177.36 271.938 177.349C273.11 177.341 274.101 178.13 274.4 179.206L312.316 178.921L328.706 195.057L384.24 194.639L384.132 180.35L527.707 179.271L522.842 174.488L379.052 175.569L379.159 189.858L330.357 190.225L313.968 174.089L276.623 174.37C276.331 175.451 275.362 176.255 274.19 176.264C272.774 176.274 271.631 175.139 271.62 173.723C271.61 172.307 272.745 171.164 274.152 171.154C275.323 171.145 276.314 171.934 276.613 173.011L314.529 172.725L330.91 188.861L377.79 188.509L377.682 174.22L521.472 173.138L518.346 170.058L451.785 170.559C451.494 171.639 450.524 172.444 449.343 172.452C447.937 172.463 446.784 171.328 446.774 169.912C446.763 168.496 447.898 167.353 449.305 167.343C450.477 167.334 451.467 168.123 451.775 169.199L451.785 169.19Z" fill="url(#paint42_linear_22_4233)"/>
<path style="mix-blend-mode:color-dodge" d="M333.421 -10.9154L379.926 -11.2651L396.306 4.87062L460.119 4.3908L460.011 -9.89822L577.568 -10.7821L577.578 -9.42261L461.39 -8.54898L461.498 5.74004L370.438 6.42473C370.146 7.50523 369.177 8.30952 368.005 8.31833C366.599 8.32891 365.446 7.19361 365.436 5.7872C365.425 4.3808 366.56 3.21897 367.967 3.2084C369.139 3.19959 370.12 3.98921 370.428 5.0652L394.393 4.885L390.18 0.734727L348.991 1.04443C348.699 2.12493 347.73 2.92922 346.549 2.9381C345.142 2.94868 343.99 1.81343 343.979 0.407033C343.969 -0.999367 345.104 -2.1612 346.51 -2.17177C347.682 -2.18058 348.673 -1.39103 348.981 -0.315043L388.81 -0.614526L379.373 -9.91071L333.421 -9.5652C333.129 -8.4847 332.16 -7.68041 330.988 -7.67159C329.573 -7.66095 328.42 -8.79625 328.409 -10.2026C328.399 -11.6091 329.534 -12.7615 330.95 -12.7721C332.122 -12.781 333.103 -11.9913 333.411 -10.9153L333.421 -10.9154Z" fill="url(#paint43_linear_22_4233)"/>
<path style="mix-blend-mode:color-dodge" d="M430.507 19.2878L490.504 18.8366L506.884 34.9724L553.764 34.6199L553.657 20.3308L688.146 19.3196L688.157 20.6791L555.027 21.6802L555.134 35.9692L506.332 36.3361L489.952 20.2004L430.517 20.6473C430.225 21.7278 429.256 22.5321 428.084 22.5409C426.669 22.5516 425.516 21.4163 425.506 20.0099C425.495 18.6035 426.63 17.4416 428.046 17.431C429.218 17.4222 430.199 18.2118 430.507 19.2878Z" fill="url(#paint44_linear_22_4233)"/>
</g>
</mask>
<g mask="url(#mask0_22_4233)">
<rect x="185.551" y="-34.0061" width="389.28" height="603.16" fill="#39CB75"/>
</g>
</g>
<defs>
<linearGradient id="paint0_linear_22_4233" x1="274.981" y1="542.064" x2="774.686" y2="533.619" gradientUnits="userSpaceOnUse">
<stop stop-color="white"/>
<stop offset="0.33" stop-color="#B8B7B7"/>
<stop offset="0.66" stop-color="#706E6E"/>
<stop offset="0.78" stop-color="#575454"/>
<stop offset="1"/>
</linearGradient>
<linearGradient id="paint1_linear_22_4233" x1="274.857" y1="534.33" x2="774.553" y2="525.884" gradientUnits="userSpaceOnUse">
<stop stop-color="white"/>
<stop offset="0.33" stop-color="#B8B7B7"/>
<stop offset="0.66" stop-color="#706E6E"/>
<stop offset="0.78" stop-color="#575454"/>
<stop offset="1"/>
</linearGradient>
<linearGradient id="paint2_linear_22_4233" x1="634.314" y1="448.091" x2="40.6652" y2="432.864" gradientUnits="userSpaceOnUse">
<stop stop-color="white"/>
<stop offset="0.33" stop-color="#B8B7B7"/>
<stop offset="0.66" stop-color="#706E6E"/>
<stop offset="0.78" stop-color="#575454"/>
<stop offset="1"/>
</linearGradient>
<linearGradient id="paint3_linear_22_4233" x1="638.505" y1="284.702" x2="44.8563" y2="269.475" gradientUnits="userSpaceOnUse">
<stop stop-color="white"/>
<stop offset="0.33" stop-color="#B8B7B7"/>
<stop offset="0.66" stop-color="#706E6E"/>
<stop offset="0.78" stop-color="#575454"/>
<stop offset="1"/>
</linearGradient>
<linearGradient id="paint4_linear_22_4233" x1="129.875" y1="273.496" x2="699.951" y2="271.094" gradientUnits="userSpaceOnUse">
<stop stop-color="white"/>
<stop offset="0.33" stop-color="#B8B7B7"/>
<stop offset="0.66" stop-color="#706E6E"/>
<stop offset="0.78" stop-color="#575454"/>
<stop offset="1"/>
</linearGradient>
<linearGradient id="paint5_linear_22_4233" x1="634.467" y1="442.267" x2="40.8182" y2="427.04" gradientUnits="userSpaceOnUse">
<stop stop-color="white"/>
<stop offset="0.33" stop-color="#B8B7B7"/>
<stop offset="0.66" stop-color="#706E6E"/>
<stop offset="0.78" stop-color="#575454"/>
<stop offset="1"/>
</linearGradient>
<linearGradient id="paint6_linear_22_4233" x1="130.439" y1="407.116" x2="700.515" y2="404.705" gradientUnits="userSpaceOnUse">
<stop stop-color="white"/>
<stop offset="0.33" stop-color="#B8B7B7"/>
<stop offset="0.66" stop-color="#706E6E"/>
<stop offset="0.78" stop-color="#575454"/>
<stop offset="1"/>
</linearGradient>
<linearGradient id="paint7_linear_22_4233" x1="272.616" y1="402.1" x2="772.321" y2="393.654" gradientUnits="userSpaceOnUse">
<stop stop-color="white"/>
<stop offset="0.33" stop-color="#B8B7B7"/>
<stop offset="0.66" stop-color="#706E6E"/>
<stop offset="0.78" stop-color="#575454"/>
<stop offset="1"/>
</linearGradient>
<linearGradient id="paint8_linear_22_4233" x1="272.513" y1="395.893" x2="772.218" y2="387.448" gradientUnits="userSpaceOnUse">
<stop stop-color="white"/>
<stop offset="0.33" stop-color="#B8B7B7"/>
<stop offset="0.66" stop-color="#706E6E"/>
<stop offset="0.78" stop-color="#575454"/>
<stop offset="1"/>
</linearGradient>
<linearGradient id="paint9_linear_22_4233" x1="273.373" y1="446.708" x2="773.079" y2="438.262" gradientUnits="userSpaceOnUse">
<stop stop-color="white"/>
<stop offset="0.33" stop-color="#B8B7B7"/>
<stop offset="0.66" stop-color="#706E6E"/>
<stop offset="0.78" stop-color="#575454"/>
<stop offset="1"/>
</linearGradient>
<linearGradient id="paint10_linear_22_4233" x1="273.253" y1="439.507" x2="772.959" y2="431.062" gradientUnits="userSpaceOnUse">
<stop stop-color="white"/>
<stop offset="0.33" stop-color="#B8B7B7"/>
<stop offset="0.66" stop-color="#706E6E"/>
<stop offset="0.78" stop-color="#575454"/>
<stop offset="1"/>
</linearGradient>
<linearGradient id="paint11_linear_22_4233" x1="633.053" y1="497.271" x2="39.4036" y2="482.044" gradientUnits="userSpaceOnUse">
<stop stop-color="white"/>
<stop offset="0.33" stop-color="#B8B7B7"/>
<stop offset="0.66" stop-color="#706E6E"/>
<stop offset="0.78" stop-color="#575454"/>
<stop offset="1"/>
</linearGradient>
<linearGradient id="paint12_linear_22_4233" x1="633.212" y1="491.035" x2="39.5722" y2="475.808" gradientUnits="userSpaceOnUse">
<stop stop-color="white"/>
<stop offset="0.33" stop-color="#B8B7B7"/>
<stop offset="0.66" stop-color="#706E6E"/>
<stop offset="0.78" stop-color="#575454"/>
<stop offset="1"/>
</linearGradient>
<linearGradient id="paint13_linear_22_4233" x1="176.648" y1="483.356" x2="676.354" y2="474.911" gradientUnits="userSpaceOnUse">
<stop stop-color="white"/>
<stop offset="0.33" stop-color="#B8B7B7"/>
<stop offset="0.66" stop-color="#706E6E"/>
<stop offset="0.78" stop-color="#575454"/>
<stop offset="1"/>
</linearGradient>
<linearGradient id="paint14_linear_22_4233" x1="274.521" y1="514.641" x2="774.227" y2="506.196" gradientUnits="userSpaceOnUse">
<stop stop-color="white"/>
<stop offset="0.33" stop-color="#B8B7B7"/>
<stop offset="0.66" stop-color="#706E6E"/>
<stop offset="0.78" stop-color="#575454"/>
<stop offset="1"/>
</linearGradient>
<linearGradient id="paint15_linear_22_4233" x1="130.866" y1="507.489" x2="700.941" y2="505.078" gradientUnits="userSpaceOnUse">
<stop stop-color="white"/>
<stop offset="0.33" stop-color="#B8B7B7"/>
<stop offset="0.66" stop-color="#706E6E"/>
<stop offset="0.78" stop-color="#575454"/>
<stop offset="1"/>
</linearGradient>
<linearGradient id="paint16_linear_22_4233" x1="130.838" y1="501.282" x2="700.913" y2="498.871" gradientUnits="userSpaceOnUse">
<stop stop-color="white"/>
<stop offset="0.33" stop-color="#B8B7B7"/>
<stop offset="0.66" stop-color="#706E6E"/>
<stop offset="0.78" stop-color="#575454"/>
<stop offset="1"/>
</linearGradient>
<linearGradient id="paint17_linear_22_4233" x1="130.122" y1="332.491" x2="700.197" y2="330.08" gradientUnits="userSpaceOnUse">
<stop stop-color="white"/>
<stop offset="0.33" stop-color="#B8B7B7"/>
<stop offset="0.66" stop-color="#706E6E"/>
<stop offset="0.78" stop-color="#575454"/>
<stop offset="1"/>
</linearGradient>
<linearGradient id="paint18_linear_22_4233" x1="637.273" y1="332.794" x2="43.6239" y2="317.567" gradientUnits="userSpaceOnUse">
<stop stop-color="white"/>
<stop offset="0.33" stop-color="#B8B7B7"/>
<stop offset="0.66" stop-color="#706E6E"/>
<stop offset="0.78" stop-color="#575454"/>
<stop offset="1"/>
</linearGradient>
<linearGradient id="paint19_linear_22_4233" x1="130.071" y1="320.733" x2="700.146" y2="318.322" gradientUnits="userSpaceOnUse">
<stop stop-color="white"/>
<stop offset="0.33" stop-color="#B8B7B7"/>
<stop offset="0.66" stop-color="#706E6E"/>
<stop offset="0.78" stop-color="#575454"/>
<stop offset="1"/>
</linearGradient>
<linearGradient id="paint20_linear_22_4233" x1="272.297" y1="383.396" x2="772.003" y2="374.95" gradientUnits="userSpaceOnUse">
<stop stop-color="white"/>
<stop offset="0.33" stop-color="#B8B7B7"/>
<stop offset="0.66" stop-color="#706E6E"/>
<stop offset="0.78" stop-color="#575454"/>
<stop offset="1"/>
</linearGradient>
<linearGradient id="paint21_linear_22_4233" x1="130.308" y1="374.675" x2="700.383" y2="372.263" gradientUnits="userSpaceOnUse">
<stop stop-color="white"/>
<stop offset="0.33" stop-color="#B8B7B7"/>
<stop offset="0.66" stop-color="#706E6E"/>
<stop offset="0.78" stop-color="#575454"/>
<stop offset="1"/>
</linearGradient>
<linearGradient id="paint22_linear_22_4233" x1="636.432" y1="365.674" x2="42.7835" y2="350.447" gradientUnits="userSpaceOnUse">
<stop stop-color="white"/>
<stop offset="0.33" stop-color="#B8B7B7"/>
<stop offset="0.66" stop-color="#706E6E"/>
<stop offset="0.78" stop-color="#575454"/>
<stop offset="1"/>
</linearGradient>
<linearGradient id="paint23_linear_22_4233" x1="637.071" y1="340.822" x2="43.4217" y2="325.595" gradientUnits="userSpaceOnUse">
<stop stop-color="white"/>
<stop offset="0.33" stop-color="#B8B7B7"/>
<stop offset="0.66" stop-color="#706E6E"/>
<stop offset="0.78" stop-color="#575454"/>
<stop offset="1"/>
</linearGradient>
<linearGradient id="paint24_linear_22_4233" x1="184.749" y1="228.835" x2="829.51" y2="217.939" gradientUnits="userSpaceOnUse">
<stop stop-color="white"/>
<stop offset="0.62" stop-color="#B8B7B7"/>
<stop offset="0.66" stop-color="#706E6E"/>
<stop offset="0.78" stop-color="#575454"/>
<stop offset="1"/>
</linearGradient>
<linearGradient id="paint25_linear_22_4233" x1="129.653" y1="221.458" x2="699.728" y2="219.046" gradientUnits="userSpaceOnUse">
<stop stop-color="white"/>
<stop offset="0.33" stop-color="#B8B7B7"/>
<stop offset="0.66" stop-color="#706E6E"/>
<stop offset="0.78" stop-color="#575454"/>
<stop offset="1"/>
</linearGradient>
<linearGradient id="paint26_linear_22_4233" x1="639.665" y1="239.433" x2="46.0161" y2="224.206" gradientUnits="userSpaceOnUse">
<stop stop-color="white"/>
<stop offset="0.33" stop-color="#B8B7B7"/>
<stop offset="0.66" stop-color="#706E6E"/>
<stop offset="0.78" stop-color="#575454"/>
<stop offset="1"/>
</linearGradient>
<linearGradient id="paint27_linear_22_4233" x1="264.059" y1="230.564" x2="1078.84" y2="225.375" gradientUnits="userSpaceOnUse">
<stop stop-color="white"/>
<stop offset="0.33" stop-color="#B8B7B7"/>
<stop offset="0.66" stop-color="#706E6E"/>
<stop offset="0.78" stop-color="#575454"/>
<stop offset="1"/>
</linearGradient>
<linearGradient id="paint28_linear_22_4233" x1="639.999" y1="226.481" x2="46.3501" y2="211.254" gradientUnits="userSpaceOnUse">
<stop stop-color="white"/>
<stop offset="0.33" stop-color="#B8B7B7"/>
<stop offset="0.66" stop-color="#706E6E"/>
<stop offset="0.78" stop-color="#575454"/>
<stop offset="1"/>
</linearGradient>
<linearGradient id="paint29_linear_22_4233" x1="269.215" y1="200.53" x2="768.912" y2="192.084" gradientUnits="userSpaceOnUse">
<stop stop-color="white"/>
<stop offset="0.33" stop-color="#B8B7B7"/>
<stop offset="0.66" stop-color="#706E6E"/>
<stop offset="0.78" stop-color="#575454"/>
<stop offset="1"/>
</linearGradient>
<linearGradient id="paint30_linear_22_4233" x1="638.774" y1="274.282" x2="45.1248" y2="259.055" gradientUnits="userSpaceOnUse">
<stop stop-color="white"/>
<stop offset="0.33" stop-color="#B8B7B7"/>
<stop offset="0.66" stop-color="#706E6E"/>
<stop offset="0.78" stop-color="#575454"/>
<stop offset="1"/>
</linearGradient>
<linearGradient id="paint31_linear_22_4233" x1="638.064" y1="302.127" x2="44.4153" y2="286.9" gradientUnits="userSpaceOnUse">
<stop stop-color="white"/>
<stop offset="0.33" stop-color="#B8B7B7"/>
<stop offset="0.66" stop-color="#706E6E"/>
<stop offset="0.78" stop-color="#575454"/>
<stop offset="1"/>
</linearGradient>
<linearGradient id="paint32_linear_22_4233" x1="129.96" y1="293.533" x2="700.035" y2="291.122" gradientUnits="userSpaceOnUse">
<stop stop-color="white"/>
<stop offset="0.33" stop-color="#B8B7B7"/>
<stop offset="0.66" stop-color="#706E6E"/>
<stop offset="0.78" stop-color="#575454"/>
<stop offset="1"/>
</linearGradient>
<linearGradient id="paint33_linear_22_4233" x1="638.369" y1="290.244" x2="44.7198" y2="275.017" gradientUnits="userSpaceOnUse">
<stop stop-color="white"/>
<stop offset="0.33" stop-color="#B8B7B7"/>
<stop offset="0.66" stop-color="#706E6E"/>
<stop offset="0.78" stop-color="#575454"/>
<stop offset="1"/>
</linearGradient>
<linearGradient id="paint34_linear_22_4233" x1="263.262" y1="105.919" x2="1078.04" y2="100.73" gradientUnits="userSpaceOnUse">
<stop stop-color="white"/>
<stop offset="0.33" stop-color="#B8B7B7"/>
<stop offset="0.66" stop-color="#706E6E"/>
<stop offset="0.78" stop-color="#575454"/>
<stop offset="1"/>
</linearGradient>
<linearGradient id="paint35_linear_22_4233" x1="252.895" y1="100.118" x2="822.97" y2="97.7063" gradientUnits="userSpaceOnUse">
<stop stop-color="white"/>
<stop offset="0.33" stop-color="#B8B7B7"/>
<stop offset="0.66" stop-color="#706E6E"/>
<stop offset="0.78" stop-color="#575454"/>
<stop offset="1"/>
</linearGradient>
<linearGradient id="paint36_linear_22_4233" x1="267.072" y1="73.8129" x2="766.777" y2="65.3672" gradientUnits="userSpaceOnUse">
<stop stop-color="white"/>
<stop offset="0.33" stop-color="#B8B7B7"/>
<stop offset="0.66" stop-color="#706E6E"/>
<stop offset="0.78" stop-color="#575454"/>
<stop offset="1"/>
</linearGradient>
<linearGradient id="paint37_linear_22_4233" x1="128.996" y1="66.7873" x2="699.071" y2="64.3761" gradientUnits="userSpaceOnUse">
<stop stop-color="white"/>
<stop offset="0.33" stop-color="#B8B7B7"/>
<stop offset="0.66" stop-color="#706E6E"/>
<stop offset="0.78" stop-color="#575454"/>
<stop offset="1"/>
</linearGradient>
<linearGradient id="paint38_linear_22_4233" x1="262.976" y1="60.3509" x2="1077.76" y2="55.1621" gradientUnits="userSpaceOnUse">
<stop stop-color="white"/>
<stop offset="0.33" stop-color="#B8B7B7"/>
<stop offset="0.66" stop-color="#706E6E"/>
<stop offset="0.78" stop-color="#575454"/>
<stop offset="1"/>
</linearGradient>
<linearGradient id="paint39_linear_22_4233" x1="267.6" y1="160.279" x2="768.534" y2="151.815" gradientUnits="userSpaceOnUse">
<stop stop-color="white"/>
<stop offset="0.33" stop-color="#B8B7B7"/>
<stop offset="0.66" stop-color="#706E6E"/>
<stop offset="0.78" stop-color="#575454"/>
<stop offset="1"/>
</linearGradient>
<linearGradient id="paint40_linear_22_4233" x1="641.848" y1="154.418" x2="48.1992" y2="139.191" gradientUnits="userSpaceOnUse">
<stop stop-color="white"/>
<stop offset="0.33" stop-color="#B8B7B7"/>
<stop offset="0.66" stop-color="#706E6E"/>
<stop offset="0.78" stop-color="#575454"/>
<stop offset="1"/>
</linearGradient>
<linearGradient id="paint41_linear_22_4233" x1="129.338" y1="147.16" x2="699.413" y2="144.749" gradientUnits="userSpaceOnUse">
<stop stop-color="white"/>
<stop offset="0.33" stop-color="#B8B7B7"/>
<stop offset="0.66" stop-color="#706E6E"/>
<stop offset="0.78" stop-color="#575454"/>
<stop offset="1"/>
</linearGradient>
<linearGradient id="paint42_linear_22_4233" x1="169.716" y1="188.639" x2="669.422" y2="180.193" gradientUnits="userSpaceOnUse">
<stop stop-color="white"/>
<stop offset="0.33" stop-color="#B8B7B7"/>
<stop offset="0.66" stop-color="#706E6E"/>
<stop offset="0.78" stop-color="#575454"/>
<stop offset="1"/>
</linearGradient>
<linearGradient id="paint43_linear_22_4233" x1="645.728" y1="3.20149" x2="52.0787" y2="-12.0255" gradientUnits="userSpaceOnUse">
<stop stop-color="white"/>
<stop offset="0.33" stop-color="#B8B7B7"/>
<stop offset="0.66" stop-color="#706E6E"/>
<stop offset="0.78" stop-color="#575454"/>
<stop offset="1"/>
</linearGradient>
<linearGradient id="paint44_linear_22_4233" x1="266.333" y1="30.5082" x2="766.039" y2="22.0626" gradientUnits="userSpaceOnUse">
<stop stop-color="white"/>
<stop offset="0.33" stop-color="#B8B7B7"/>
<stop offset="0.66" stop-color="#706E6E"/>
<stop offset="0.78" stop-color="#575454"/>
<stop offset="1"/>
</linearGradient>
</defs>
</svg>
