<svg width="359" height="536" viewBox="0 0 359 536" fill="none" xmlns="http://www.w3.org/2000/svg">
<g opacity="0.59">
<mask id="mask0_48_4442" style="mask-type:alpha" maskUnits="userSpaceOnUse" x="-177" y="0" width="338" height="536">
<mask id="mask1_48_4442" style="mask-type:luminance" maskUnits="userSpaceOnUse" x="-177" y="0" width="536" height="536">
<path d="M-173.003 3.551e-06L-177 531.554L354.554 535.551L358.551 3.99684L-173.003 3.551e-06Z" fill="white"/>
</mask>
<g mask="url(#mask1_48_4442)">
<path style="mix-blend-mode:color-dodge" d="M-20.6633 526.334L-20.7708 540.623L29.8503 541.004L29.9679 525.356L-10.1239 525.054L-10.1848 533.164L12.6645 533.336C12.9564 534.417 13.9255 535.221 15.1069 535.23C16.5133 535.24 17.6658 534.105 17.6764 532.689C17.6871 531.274 16.5517 530.13 15.1453 530.12C13.9733 530.111 12.9828 530.901 12.6747 531.977L-8.8151 531.815L-8.77456 526.424L28.5982 526.705L28.501 539.634L-19.401 539.274L-19.2936 524.985L-134.056 524.122L-134.066 525.482L-20.6727 526.334L-20.6633 526.334Z" fill="url(#paint0_linear_48_4442)"/>
<path style="mix-blend-mode:color-dodge" d="M109.344 412.646L62.8295 412.297L46.4493 428.432L-44.9949 427.745L-45.2986 468.137L-215.736 466.855L-215.746 468.215L-43.9493 469.506L-43.6456 429.115L47.011 429.796L63.4007 413.651L109.343 413.997C109.635 415.077 110.604 415.881 111.776 415.89C113.183 415.901 114.335 414.766 114.346 413.35C114.356 411.934 113.221 410.791 111.815 410.78C110.643 410.771 109.652 411.561 109.353 412.637L109.344 412.646Z" fill="url(#paint1_linear_48_4442)"/>
<path style="mix-blend-mode:color-dodge" d="M155.689 270.903L106.615 270.534L90.2347 286.67L28.2686 286.204L28.362 273.79L-59.9318 273.126L-72.2571 286.198L-109.967 285.914L-109.859 271.494L-171.45 271.031C-171.742 269.95 -172.711 269.146 -173.883 269.137C-175.299 269.127 -176.451 270.262 -176.462 271.668C-176.472 273.075 -175.337 274.237 -173.921 274.247C-172.749 274.256 -171.768 273.466 -171.46 272.39L-111.238 272.843L-111.347 287.264L-71.686 287.562L-59.3514 274.49L26.9922 275.139L26.8989 287.553L90.787 288.033L107.167 271.898L155.66 272.262C155.942 273.361 156.921 274.184 158.102 274.193C159.508 274.204 160.661 273.069 160.671 271.662C160.682 270.256 159.547 269.094 158.14 269.083C156.978 269.075 156.006 269.846 155.689 270.903Z" fill="url(#paint2_linear_48_4442)"/>
<path style="mix-blend-mode:color-dodge" d="M147.039 265.296L106.525 264.992L90.145 281.137L34.6109 280.719L34.7184 266.43L-63.364 265.693L-77.9105 279.873L-103.282 279.682L-103.174 265.365L-193.803 264.684C-194.095 263.603 -195.064 262.799 -196.245 262.79C-197.652 262.779 -198.804 263.915 -198.815 265.331C-198.825 266.746 -197.69 267.889 -196.284 267.9C-195.112 267.909 -194.121 267.119 -193.813 266.043L-104.544 266.714L-104.652 281.032L-77.3581 281.237L-62.8116 267.056L33.3486 267.779L33.2412 282.068L90.6973 282.5L107.078 266.365L146.944 266.665C147.179 267.82 148.195 268.69 149.423 268.699C150.83 268.71 151.982 267.574 151.993 266.168C152.003 264.762 150.868 263.6 149.462 263.589C148.336 263.581 147.393 264.305 147.039 265.296Z" fill="url(#paint3_linear_48_4442)"/>
<path style="mix-blend-mode:color-dodge" d="M97.9936 407.029L60.0865 406.744L43.6969 422.879L-51.1977 422.166L-51.5014 462.558L-215.694 461.323L-215.704 462.683L-50.1427 463.927L-49.839 423.536L44.2586 424.243L60.6389 408.098L97.9835 408.379C98.2754 409.459 99.2445 410.264 100.426 410.273C101.832 410.283 102.994 409.148 103.005 407.742C103.015 406.335 101.88 405.183 100.464 405.172C99.2923 405.163 98.3018 405.953 97.9936 407.029Z" fill="url(#paint4_linear_48_4442)"/>
<path style="mix-blend-mode:color-dodge" d="M53.6122 398.603L7.10722 398.253L-9.27301 414.389L-73.0861 413.909L-72.9787 399.62L-190.535 398.736L-190.545 400.096L-74.3578 400.97L-74.4652 415.259L-8.73005 415.753L7.65019 399.617L53.5926 399.963C53.8845 401.043 54.8536 401.847 56.0256 401.856C57.4414 401.867 58.5939 400.732 58.6045 399.325C58.6151 397.919 57.4798 396.757 56.064 396.746C54.892 396.737 53.911 397.527 53.6028 398.603L53.6122 398.603Z" fill="url(#paint5_linear_48_4442)"/>
<path style="mix-blend-mode:color-dodge" d="M42.2714 392.976L4.36422 392.691L-12.0254 408.827L-67.5594 408.409L-67.452 394.12L-193.278 393.174L-193.288 394.534L-68.8217 395.47L-68.9292 409.759L-11.4731 410.191L4.91657 394.055L42.2612 394.336C42.5531 395.416 43.5222 396.221 44.7036 396.23C46.11 396.24 47.2625 395.105 47.273 393.698C47.2836 392.292 46.1484 391.14 44.7419 391.129C43.57 391.12 42.5795 391.91 42.2713 392.986L42.2714 392.976Z" fill="url(#paint6_linear_48_4442)"/>
<path style="mix-blend-mode:color-dodge" d="M40.0583 386.781L2.14175 386.495L-14.2385 402.631L-61.1185 402.279L-61.011 387.99L-195.5 386.978L-195.511 388.338L-62.3808 389.339L-62.4882 403.628L-13.6862 403.995L2.69417 387.85L40.0482 388.131C40.3401 389.211 41.3092 390.015 42.4906 390.024C43.897 390.035 45.0494 388.9 45.0601 387.484C45.0707 386.068 43.9354 384.925 42.529 384.914C41.357 384.906 40.3665 385.695 40.0584 386.771L40.0583 386.781Z" fill="url(#paint7_linear_48_4442)"/>
<path style="mix-blend-mode:color-dodge" d="M-13.611 499.983L-13.5177 487.569L-101.811 486.905L-114.146 499.977L-151.847 499.694L-151.739 485.274L-213.32 484.81C-213.612 483.73 -214.581 482.926 -215.763 482.917C-217.169 482.906 -218.321 484.042 -218.332 485.448C-218.343 486.854 -217.207 488.007 -215.801 488.017C-214.629 488.026 -213.638 487.237 -213.33 486.161L-153.108 486.613L-153.217 501.034L-113.556 501.332L-101.231 488.26L-14.8873 488.909L-14.9807 501.323L48.9074 501.803L65.2877 485.668L116.237 486.051L116.247 484.691L64.7353 484.304L48.3551 500.44L-13.6109 499.974L-13.611 499.983Z" fill="url(#paint8_linear_48_4442)"/>
<path style="mix-blend-mode:color-dodge" d="M-7.26861 494.489L-7.16117 480.2L-105.234 479.463L-119.781 493.643L-145.152 493.452L-145.044 479.135L-235.682 478.454C-235.974 477.373 -236.943 476.569 -238.115 476.56C-239.531 476.55 -240.684 477.685 -240.694 479.101C-240.705 480.516 -239.57 481.659 -238.154 481.67C-236.982 481.679 -235.991 480.889 -235.693 479.813L-146.424 480.485L-146.531 494.802L-119.247 495.007L-104.701 480.826L-8.54031 481.549L-8.64775 495.838L48.8084 496.27L65.198 480.135L107.549 480.453L107.56 479.094L64.6363 478.771L48.2561 494.907L-7.27799 494.489L-7.26861 494.489Z" fill="url(#paint9_linear_48_4442)"/>
<path style="mix-blend-mode:color-dodge" d="M97.7556 473.591L59.8391 473.306L43.4588 489.442L-3.4212 489.089L-3.31375 474.8L-215.783 473.203L-215.794 474.562L-4.67411 476.15L-4.78155 490.439L44.0205 490.806L60.4008 474.67L97.7548 474.951C98.0467 476.031 99.0158 476.835 100.188 476.844C101.594 476.855 102.747 475.72 102.757 474.313C102.768 472.907 101.633 471.745 100.226 471.734C99.0542 471.726 98.0638 472.515 97.765 473.591L97.7556 473.591Z" fill="url(#paint10_linear_48_4442)"/>
<path style="mix-blend-mode:color-dodge" d="M94.285 324.14L47.78 323.791L31.3997 339.927L-32.4133 339.447L-32.3059 325.158L-149.872 324.274L-149.882 325.633L-33.6944 326.507L-33.8018 340.796L31.9333 341.29L48.3229 325.154L94.2654 325.5C94.5573 326.58 95.5264 327.385 96.6984 327.394C98.1142 327.404 99.2666 326.269 99.2772 324.862C99.2878 323.456 98.1525 322.304 96.7368 322.293C95.5648 322.284 94.5836 323.074 94.2755 324.15L94.285 324.14Z" fill="url(#paint11_linear_48_4442)"/>
<path style="mix-blend-mode:color-dodge" d="M82.944 318.523L45.0368 318.238L28.6472 334.374L-26.8868 333.956L-26.7794 319.667L-152.615 318.721L-152.625 320.08L-28.1585 321.016L-28.2659 335.305L29.1902 335.737L45.5704 319.602L82.9244 319.883C83.2164 320.963 84.1855 321.767 85.3668 321.776C86.7826 321.787 87.9257 320.652 87.9363 319.245C87.9469 317.839 86.8117 316.677 85.4053 316.666C84.2333 316.657 83.2428 317.447 82.9347 318.523L82.944 318.523Z" fill="url(#paint12_linear_48_4442)"/>
<path style="mix-blend-mode:color-dodge" d="M80.7216 312.318L42.8051 312.033L26.4249 328.169L-20.4552 327.816L-20.3477 313.527L-154.837 312.516L-154.847 313.875L-21.7175 314.876L-21.8249 329.165L26.9772 329.532L43.3574 313.397L80.702 313.677C80.994 314.758 81.9631 315.562 83.1444 315.571C84.5508 315.582 85.7127 314.446 85.7233 313.04C85.7339 311.634 84.5986 310.472 83.1829 310.461C82.0109 310.452 81.0204 311.242 80.7123 312.318L80.7216 312.318Z" fill="url(#paint13_linear_48_4442)"/>
<path style="mix-blend-mode:color-dodge" d="M-2.80181 354.353L-62.7989 353.902L-79.1791 370.038L-126.059 369.685L-125.952 355.396L-260.441 354.385L-260.451 355.744L-127.321 356.745L-127.429 371.034L-78.6268 371.401L-62.2465 355.266L-2.81203 355.713C-2.5201 356.793 -1.55102 357.597 -0.378999 357.606C1.03676 357.617 2.18922 356.482 2.1998 355.075C2.21037 353.669 1.07519 352.507 -0.340577 352.496C-1.5126 352.487 -2.49366 353.277 -2.80181 354.353Z" fill="url(#paint14_linear_48_4442)"/>
<path style="mix-blend-mode:color-dodge" d="M151.214 198.867L104.709 198.517L88.3289 214.653L-3.12458 213.965L-3.42829 254.357L-173.865 253.075L-173.875 254.435L-2.079 255.727L-1.77528 215.335L88.8719 216.016L105.252 199.881L151.195 200.226C151.486 201.307 152.456 202.111 153.628 202.12C155.034 202.13 156.186 200.995 156.197 199.579C156.208 198.164 155.072 197.02 153.666 197.01C152.494 197.001 151.504 197.791 151.205 198.867L151.214 198.867Z" fill="url(#paint15_linear_48_4442)"/>
<path style="mix-blend-mode:color-dodge" d="M139.873 193.249L101.957 192.964L85.5764 209.1L-9.31812 208.387L-9.62183 248.778L-173.824 247.544L-173.834 248.903L-8.27253 250.148L-7.96882 209.756L86.1287 210.464L102.509 194.319L139.863 194.6C140.155 195.68 141.124 196.484 142.296 196.493C143.712 196.504 144.855 195.368 144.866 193.962C144.876 192.556 143.741 191.403 142.334 191.393C141.162 191.384 140.181 192.173 139.873 193.249Z" fill="url(#paint16_linear_48_4442)"/>
<path style="mix-blend-mode:color-dodge" d="M139.635 259.812L101.719 259.526L85.3386 275.662L38.4585 275.31L38.566 261.021L-173.913 259.423L-173.923 260.783L37.1962 262.37L37.0888 276.659L85.8909 277.026L102.271 260.89L139.625 261.171C139.917 262.252 140.886 263.056 142.058 263.065C143.465 263.075 144.617 261.94 144.628 260.524C144.638 259.108 143.503 257.965 142.097 257.955C140.925 257.946 139.943 258.736 139.635 259.812Z" fill="url(#paint17_linear_48_4442)"/>
<path style="mix-blend-mode:color-dodge" d="M17.7911 290.476L-49.3317 289.971L-65.7119 306.107L-129.525 305.627L-129.418 291.338L-246.964 290.454L-246.975 291.813L-130.787 292.687L-130.895 306.976L-65.1596 307.47L-48.7793 291.335L17.7715 291.835C18.0635 292.915 19.0326 293.72 20.2139 293.729C21.6204 293.739 22.7728 292.604 22.7835 291.188C22.7941 289.772 21.6589 288.62 20.2524 288.609C19.0804 288.601 18.09 289.39 17.7818 290.466L17.7911 290.476Z" fill="url(#paint18_linear_48_4442)"/>
<path style="mix-blend-mode:color-dodge" d="M5.31034 288.075C6.72611 288.086 7.87857 286.95 7.88922 285.535C7.89986 284.119 6.76454 282.976 5.34876 282.965C4.17676 282.956 3.18627 283.746 2.88751 284.822L-52.0652 284.409L-68.4455 300.544L-123.98 300.127L-123.872 285.838L-249.717 284.892L-249.727 286.251L-125.251 287.187L-125.359 301.476L-67.9025 301.908L-51.5223 285.772L2.87729 286.181C3.1692 287.262 4.13834 288.066 5.31034 288.075Z" fill="url(#paint19_linear_48_4442)"/>
<path style="mix-blend-mode:color-dodge" d="M40.1889 77.5905L-6.3254 77.2407L-22.7056 93.3765L-114.15 92.6889L-114.454 133.081L-284.89 131.799L-284.901 133.159L-113.104 134.45L-112.8 94.0586L-22.1439 94.7403L-5.75434 78.6046L40.1881 78.9501C40.48 80.0306 41.4491 80.8349 42.6211 80.8437C44.0275 80.8542 45.1894 79.719 45.2 78.3033C45.2107 76.8875 44.0753 75.7444 42.6595 75.7337C41.4876 75.7249 40.4971 76.5145 40.1983 77.5905L40.1889 77.5905Z" fill="url(#paint20_linear_48_4442)"/>
<path style="mix-blend-mode:color-dodge" d="M28.8483 71.9636L-9.0589 71.6786L-25.4485 87.8143L-120.343 87.1007L-120.647 127.493L-284.849 126.258L-284.859 127.617L-119.297 128.862L-118.994 88.4705L-24.8962 89.178L-8.51595 73.0423L28.8286 73.3231C29.1206 74.4036 30.0897 75.2079 31.2711 75.2167C32.6775 75.2273 33.8393 74.0921 33.8499 72.6857C33.8605 71.2793 32.7252 70.1268 31.3094 70.1162C30.1374 70.1074 29.1469 70.8969 28.8388 71.9729L28.8483 71.9636Z" fill="url(#paint21_linear_48_4442)"/>
<path style="mix-blend-mode:color-dodge" d="M-82.7564 164.918L-82.6631 152.504L-170.966 151.84L-183.301 164.912L-221.011 164.628L-220.903 150.208L-282.484 149.745C-282.776 148.665 -283.745 147.86 -284.927 147.851C-286.333 147.841 -287.486 148.976 -287.496 150.383C-287.507 151.789 -286.372 152.941 -284.965 152.952C-283.793 152.961 -282.803 152.171 -282.495 151.095L-222.263 151.548L-222.372 165.968L-182.711 166.267L-170.386 153.195L-84.0421 153.844L-84.1354 166.258L-20.2474 166.738L-3.86713 150.602L44.7662 150.968C44.8643 151.644 46.1388 152.976 47.5287 151.448C47.661 151.309 47.9086 150.804 47.9213 150.354C47.9239 150.007 47.6574 149.293 47.518 149.132C46.3089 147.82 44.8658 148.953 44.7778 149.43C44.768 149.487 44.7014 149.608 44.7014 149.608L-4.41945 149.239L-20.7997 165.374L-82.7657 164.908L-82.7564 164.918Z" fill="url(#paint22_linear_48_4442)"/>
<path style="mix-blend-mode:color-dodge" d="M-76.4234 159.433L-76.316 145.144L-174.389 144.407L-188.935 158.587L-214.307 158.397L-214.199 144.079L-304.828 143.398C-305.12 142.317 -306.089 141.513 -307.261 141.504C-308.677 141.494 -309.829 142.629 -309.84 144.045C-309.85 145.461 -308.715 146.604 -307.299 146.614C-306.127 146.623 -305.137 145.834 -304.838 144.757L-215.569 145.429L-215.677 159.746L-188.393 159.951L-173.846 145.771L-77.6857 146.494L-77.7932 160.783L-20.337 161.215L-3.94743 145.079L38.404 145.397L38.4142 144.038L-4.50912 143.715L-20.8894 159.851L-76.4234 159.433Z" fill="url(#paint23_linear_48_4442)"/>
<path style="mix-blend-mode:color-dodge" d="M28.6102 138.526L-9.30632 138.241L-25.6866 154.377L-72.5666 154.024L-72.4591 139.735L-284.938 138.137L-284.948 139.497L-73.8289 141.084L-73.9363 155.373L-25.1342 155.74L-8.75396 139.605L28.6 139.885C28.8919 140.966 29.8611 141.77 31.0331 141.779C32.4488 141.79 33.5919 140.654 33.6025 139.248C33.6131 137.842 32.4778 136.689 31.0714 136.678C29.8994 136.67 28.9089 137.459 28.6102 138.535L28.6102 138.526Z" fill="url(#paint24_linear_48_4442)"/>
<path style="mix-blend-mode:color-dodge" d="M-93.234 169.19L-160.357 168.685L-176.737 184.821L-240.55 184.341L-240.443 170.052L-357.99 169.168L-358 170.528L-241.803 171.401L-241.91 185.69L-176.185 186.185L-176.109 186.11L-32.4781 187.19L-32.5856 201.479L33.1496 201.973L49.5298 185.838L95.4722 186.183C95.7641 187.264 96.7332 188.068 97.9052 188.077C99.3117 188.087 100.474 186.952 100.484 185.546C100.495 184.139 99.3594 182.978 97.9437 182.967C96.7717 182.958 95.7906 183.748 95.4824 184.824L48.9775 184.474L32.5972 200.619L-31.2159 200.139L-31.1085 185.85L-174.739 184.77L-170.526 180.62L-26.9422 181.7L-27.0497 195.989L30.4065 196.421L46.7868 180.276L84.1408 180.556C84.4327 181.637 85.4018 182.441 86.5738 182.45C87.9802 182.461 89.1421 181.325 89.1527 179.919C89.1632 178.513 88.0279 177.36 86.6122 177.35C85.4402 177.341 84.4497 178.13 84.151 179.206L46.2344 178.921L29.8448 195.057L-25.6893 194.639L-25.5819 180.35L-169.157 179.271L-164.292 174.488L-20.5013 175.569L-20.6088 189.858L28.1934 190.225L44.583 174.089L81.9275 174.37C82.2195 175.451 83.1886 176.255 84.3606 176.264C85.7764 176.274 86.9195 175.139 86.9301 173.723C86.9408 172.307 85.8054 171.164 84.399 171.154C83.227 171.145 82.2365 171.934 81.9378 173.011L44.0212 172.725L27.641 188.861L-19.239 188.509L-19.1316 174.22L-162.922 173.138L-159.795 170.058L-93.2349 170.559C-92.943 171.639 -91.9739 172.444 -90.7925 172.452C-89.3861 172.463 -88.2336 171.328 -88.223 169.912C-88.2123 168.496 -89.3477 167.353 -90.7541 167.343C-91.9261 167.334 -92.9165 168.123 -93.2247 169.199L-93.234 169.19Z" fill="url(#paint25_linear_48_4442)"/>
<path style="mix-blend-mode:color-dodge" d="M25.13 -10.9154L-21.375 -11.2651L-37.7552 4.87059L-101.568 4.39077L-101.461 -9.89825L-219.017 -10.7822L-219.027 -9.42264L-102.84 -8.54901L-102.947 5.74001L-11.8877 6.4247C-11.5957 7.5052 -10.6266 8.30949 -9.45462 8.3183C-8.04823 8.32888 -6.89576 7.19357 -6.88518 5.78717C-6.87461 4.38077 -8.00981 3.21894 -9.4162 3.20837C-10.5882 3.19956 -11.5693 3.98918 -11.8774 5.06517L-35.8425 4.88497L-31.6294 0.734696L9.55942 1.0444C9.85134 2.1249 10.8204 2.92919 12.0018 2.93807C13.4082 2.94865 14.5607 1.8134 14.5713 0.407003C14.5818 -0.999397 13.4466 -2.16123 12.0402 -2.1718C10.8683 -2.18061 9.87778 -1.39106 9.56964 -0.315074L-30.2596 -0.614556L-20.8226 -9.91074L25.1292 -9.56523C25.4211 -8.48473 26.3903 -7.68044 27.5622 -7.67163C28.978 -7.66098 30.1305 -8.79628 30.1411 -10.2027C30.1517 -11.6091 29.0164 -12.7615 27.6006 -12.7722C26.4286 -12.781 25.4475 -11.9914 25.1394 -10.9154L25.13 -10.9154Z" fill="url(#paint26_linear_48_4442)"/>
</g>
</mask>
<g mask="url(#mask0_48_4442)">
<rect width="389.28" height="603.16" transform="matrix(-1 0 0 1 173 -34.0061)" fill="#39CB75"/>
</g>
</g>
<defs>
<linearGradient id="paint0_linear_48_4442" x1="83.6936" y1="534.33" x2="-416.003" y2="525.884" gradientUnits="userSpaceOnUse">
<stop stop-color="white"/>
<stop offset="0.33" stop-color="#B8B7B7"/>
<stop offset="0.66" stop-color="#706E6E"/>
<stop offset="0.78" stop-color="#575454"/>
<stop offset="1"/>
</linearGradient>
<linearGradient id="paint1_linear_48_4442" x1="-275.764" y1="448.091" x2="317.885" y2="432.864" gradientUnits="userSpaceOnUse">
<stop stop-color="white"/>
<stop offset="0.33" stop-color="#B8B7B7"/>
<stop offset="0.66" stop-color="#706E6E"/>
<stop offset="0.78" stop-color="#575454"/>
<stop offset="1"/>
</linearGradient>
<linearGradient id="paint2_linear_48_4442" x1="-279.955" y1="284.702" x2="313.694" y2="269.475" gradientUnits="userSpaceOnUse">
<stop stop-color="white"/>
<stop offset="0.33" stop-color="#B8B7B7"/>
<stop offset="0.66" stop-color="#706E6E"/>
<stop offset="0.78" stop-color="#575454"/>
<stop offset="1"/>
</linearGradient>
<linearGradient id="paint3_linear_48_4442" x1="228.675" y1="273.496" x2="-341.4" y2="271.094" gradientUnits="userSpaceOnUse">
<stop stop-color="white"/>
<stop offset="0.33" stop-color="#B8B7B7"/>
<stop offset="0.66" stop-color="#706E6E"/>
<stop offset="0.78" stop-color="#575454"/>
<stop offset="1"/>
</linearGradient>
<linearGradient id="paint4_linear_48_4442" x1="-275.917" y1="442.267" x2="317.732" y2="427.04" gradientUnits="userSpaceOnUse">
<stop stop-color="white"/>
<stop offset="0.33" stop-color="#B8B7B7"/>
<stop offset="0.66" stop-color="#706E6E"/>
<stop offset="0.78" stop-color="#575454"/>
<stop offset="1"/>
</linearGradient>
<linearGradient id="paint5_linear_48_4442" x1="228.111" y1="407.116" x2="-341.964" y2="404.705" gradientUnits="userSpaceOnUse">
<stop stop-color="white"/>
<stop offset="0.33" stop-color="#B8B7B7"/>
<stop offset="0.66" stop-color="#706E6E"/>
<stop offset="0.78" stop-color="#575454"/>
<stop offset="1"/>
</linearGradient>
<linearGradient id="paint6_linear_48_4442" x1="85.9349" y1="402.1" x2="-413.771" y2="393.654" gradientUnits="userSpaceOnUse">
<stop stop-color="white"/>
<stop offset="0.33" stop-color="#B8B7B7"/>
<stop offset="0.66" stop-color="#706E6E"/>
<stop offset="0.78" stop-color="#575454"/>
<stop offset="1"/>
</linearGradient>
<linearGradient id="paint7_linear_48_4442" x1="86.0379" y1="395.893" x2="-413.668" y2="387.448" gradientUnits="userSpaceOnUse">
<stop stop-color="white"/>
<stop offset="0.33" stop-color="#B8B7B7"/>
<stop offset="0.66" stop-color="#706E6E"/>
<stop offset="0.78" stop-color="#575454"/>
<stop offset="1"/>
</linearGradient>
<linearGradient id="paint8_linear_48_4442" x1="-274.502" y1="497.271" x2="319.147" y2="482.044" gradientUnits="userSpaceOnUse">
<stop stop-color="white"/>
<stop offset="0.33" stop-color="#B8B7B7"/>
<stop offset="0.66" stop-color="#706E6E"/>
<stop offset="0.78" stop-color="#575454"/>
<stop offset="1"/>
</linearGradient>
<linearGradient id="paint9_linear_48_4442" x1="-274.661" y1="491.035" x2="318.978" y2="475.808" gradientUnits="userSpaceOnUse">
<stop stop-color="white"/>
<stop offset="0.33" stop-color="#B8B7B7"/>
<stop offset="0.66" stop-color="#706E6E"/>
<stop offset="0.78" stop-color="#575454"/>
<stop offset="1"/>
</linearGradient>
<linearGradient id="paint10_linear_48_4442" x1="181.902" y1="483.357" x2="-317.803" y2="474.911" gradientUnits="userSpaceOnUse">
<stop stop-color="white"/>
<stop offset="0.33" stop-color="#B8B7B7"/>
<stop offset="0.66" stop-color="#706E6E"/>
<stop offset="0.78" stop-color="#575454"/>
<stop offset="1"/>
</linearGradient>
<linearGradient id="paint11_linear_48_4442" x1="228.428" y1="332.491" x2="-341.647" y2="330.08" gradientUnits="userSpaceOnUse">
<stop stop-color="white"/>
<stop offset="0.33" stop-color="#B8B7B7"/>
<stop offset="0.66" stop-color="#706E6E"/>
<stop offset="0.78" stop-color="#575454"/>
<stop offset="1"/>
</linearGradient>
<linearGradient id="paint12_linear_48_4442" x1="-278.722" y1="332.794" x2="314.927" y2="317.567" gradientUnits="userSpaceOnUse">
<stop stop-color="white"/>
<stop offset="0.33" stop-color="#B8B7B7"/>
<stop offset="0.66" stop-color="#706E6E"/>
<stop offset="0.78" stop-color="#575454"/>
<stop offset="1"/>
</linearGradient>
<linearGradient id="paint13_linear_48_4442" x1="228.479" y1="320.733" x2="-341.596" y2="318.322" gradientUnits="userSpaceOnUse">
<stop stop-color="white"/>
<stop offset="0.33" stop-color="#B8B7B7"/>
<stop offset="0.66" stop-color="#706E6E"/>
<stop offset="0.78" stop-color="#575454"/>
<stop offset="1"/>
</linearGradient>
<linearGradient id="paint14_linear_48_4442" x1="-277.882" y1="365.674" x2="315.767" y2="350.447" gradientUnits="userSpaceOnUse">
<stop stop-color="white"/>
<stop offset="0.33" stop-color="#B8B7B7"/>
<stop offset="0.66" stop-color="#706E6E"/>
<stop offset="0.78" stop-color="#575454"/>
<stop offset="1"/>
</linearGradient>
<linearGradient id="paint15_linear_48_4442" x1="173.802" y1="228.835" x2="-470.959" y2="217.939" gradientUnits="userSpaceOnUse">
<stop stop-color="white"/>
<stop offset="0.62" stop-color="#B8B7B7"/>
<stop offset="0.66" stop-color="#706E6E"/>
<stop offset="0.78" stop-color="#575454"/>
<stop offset="1"/>
</linearGradient>
<linearGradient id="paint16_linear_48_4442" x1="228.898" y1="221.458" x2="-341.178" y2="219.046" gradientUnits="userSpaceOnUse">
<stop stop-color="white"/>
<stop offset="0.33" stop-color="#B8B7B7"/>
<stop offset="0.66" stop-color="#706E6E"/>
<stop offset="0.78" stop-color="#575454"/>
<stop offset="1"/>
</linearGradient>
<linearGradient id="paint17_linear_48_4442" x1="-280.223" y1="274.282" x2="313.426" y2="259.055" gradientUnits="userSpaceOnUse">
<stop stop-color="white"/>
<stop offset="0.33" stop-color="#B8B7B7"/>
<stop offset="0.66" stop-color="#706E6E"/>
<stop offset="0.78" stop-color="#575454"/>
<stop offset="1"/>
</linearGradient>
<linearGradient id="paint18_linear_48_4442" x1="-279.514" y1="302.127" x2="314.135" y2="286.9" gradientUnits="userSpaceOnUse">
<stop stop-color="white"/>
<stop offset="0.33" stop-color="#B8B7B7"/>
<stop offset="0.66" stop-color="#706E6E"/>
<stop offset="0.78" stop-color="#575454"/>
<stop offset="1"/>
</linearGradient>
<linearGradient id="paint19_linear_48_4442" x1="228.59" y1="293.533" x2="-341.485" y2="291.121" gradientUnits="userSpaceOnUse">
<stop stop-color="white"/>
<stop offset="0.33" stop-color="#B8B7B7"/>
<stop offset="0.66" stop-color="#706E6E"/>
<stop offset="0.78" stop-color="#575454"/>
<stop offset="1"/>
</linearGradient>
<linearGradient id="paint20_linear_48_4442" x1="95.2881" y1="105.919" x2="-719.494" y2="100.73" gradientUnits="userSpaceOnUse">
<stop stop-color="white"/>
<stop offset="0.33" stop-color="#B8B7B7"/>
<stop offset="0.66" stop-color="#706E6E"/>
<stop offset="0.78" stop-color="#575454"/>
<stop offset="1"/>
</linearGradient>
<linearGradient id="paint21_linear_48_4442" x1="105.655" y1="100.118" x2="-464.42" y2="97.7064" gradientUnits="userSpaceOnUse">
<stop stop-color="white"/>
<stop offset="0.33" stop-color="#B8B7B7"/>
<stop offset="0.66" stop-color="#706E6E"/>
<stop offset="0.78" stop-color="#575454"/>
<stop offset="1"/>
</linearGradient>
<linearGradient id="paint22_linear_48_4442" x1="90.9506" y1="160.279" x2="-409.983" y2="151.815" gradientUnits="userSpaceOnUse">
<stop stop-color="white"/>
<stop offset="0.33" stop-color="#B8B7B7"/>
<stop offset="0.66" stop-color="#706E6E"/>
<stop offset="0.78" stop-color="#575454"/>
<stop offset="1"/>
</linearGradient>
<linearGradient id="paint23_linear_48_4442" x1="-283.298" y1="154.418" x2="310.351" y2="139.191" gradientUnits="userSpaceOnUse">
<stop stop-color="white"/>
<stop offset="0.33" stop-color="#B8B7B7"/>
<stop offset="0.66" stop-color="#706E6E"/>
<stop offset="0.78" stop-color="#575454"/>
<stop offset="1"/>
</linearGradient>
<linearGradient id="paint24_linear_48_4442" x1="229.212" y1="147.16" x2="-340.863" y2="144.749" gradientUnits="userSpaceOnUse">
<stop stop-color="white"/>
<stop offset="0.33" stop-color="#B8B7B7"/>
<stop offset="0.66" stop-color="#706E6E"/>
<stop offset="0.78" stop-color="#575454"/>
<stop offset="1"/>
</linearGradient>
<linearGradient id="paint25_linear_48_4442" x1="188.835" y1="188.639" x2="-310.871" y2="180.193" gradientUnits="userSpaceOnUse">
<stop stop-color="white"/>
<stop offset="0.33" stop-color="#B8B7B7"/>
<stop offset="0.66" stop-color="#706E6E"/>
<stop offset="0.78" stop-color="#575454"/>
<stop offset="1"/>
</linearGradient>
<linearGradient id="paint26_linear_48_4442" x1="-287.177" y1="3.20146" x2="306.472" y2="-12.0255" gradientUnits="userSpaceOnUse">
<stop stop-color="white"/>
<stop offset="0.33" stop-color="#B8B7B7"/>
<stop offset="0.66" stop-color="#706E6E"/>
<stop offset="0.78" stop-color="#575454"/>
<stop offset="1"/>
</linearGradient>
</defs>
</svg>
