<svg width="77" height="95" viewBox="0 0 77 95" fill="none" xmlns="http://www.w3.org/2000/svg">
<circle cx="2.5" cy="2.5" r="2.5" transform="matrix(-1 0 0 1 5 0)" fill="#39CB75"/>
<circle cx="2.5" cy="2.5" r="2.5" transform="matrix(-1 0 0 1 23 0)" fill="#39CB75"/>
<circle cx="2.5" cy="2.5" r="2.5" transform="matrix(-1 0 0 1 41 0)" fill="#39CB75"/>
<circle cx="2.5" cy="2.5" r="2.5" transform="matrix(-1 0 0 1 59 0)" fill="#39CB75"/>
<circle cx="2.5" cy="2.5" r="2.5" transform="matrix(-1 0 0 1 77 0)" fill="#39CB75"/>
<circle cx="2.5" cy="2.5" r="2.5" transform="matrix(-1 0 0 1 77 18)" fill="#39CB75"/>
<circle cx="2.5" cy="2.5" r="2.5" transform="matrix(-1 0 0 1 77 36)" fill="#39CB75"/>
<circle cx="2.5" cy="2.5" r="2.5" transform="matrix(-1 0 0 1 77 54)" fill="#39CB75"/>
<circle cx="2.5" cy="2.5" r="2.5" transform="matrix(-1 0 0 1 77 72)" fill="#39CB75"/>
<circle cx="2.5" cy="2.5" r="2.5" transform="matrix(-1 0 0 1 77 90)" fill="#39CB75"/>
<circle cx="2.5" cy="2.5" r="2.5" transform="matrix(-1 0 0 1 59 18)" fill="#39CB75"/>
<circle cx="2.5" cy="2.5" r="2.5" transform="matrix(-1 0 0 1 59 36)" fill="#39CB75"/>
<circle cx="2.5" cy="2.5" r="2.5" transform="matrix(-1 0 0 1 59 54)" fill="#39CB75"/>
<circle cx="2.5" cy="2.5" r="2.5" transform="matrix(-1 0 0 1 59 72)" fill="#39CB75"/>
<circle cx="2.5" cy="2.5" r="2.5" transform="matrix(-1 0 0 1 59 90)" fill="#39CB75"/>
<circle cx="2.5" cy="2.5" r="2.5" transform="matrix(-1 0 0 1 23 18)" fill="#39CB75"/>
<circle cx="2.5" cy="2.5" r="2.5" transform="matrix(-1 0 0 1 23 36)" fill="#39CB75"/>
<circle cx="2.5" cy="2.5" r="2.5" transform="matrix(-1 0 0 1 23 54)" fill="#39CB75"/>
<circle cx="2.5" cy="2.5" r="2.5" transform="matrix(-1 0 0 1 23 72)" fill="#39CB75"/>
<circle cx="2.5" cy="2.5" r="2.5" transform="matrix(-1 0 0 1 23 90)" fill="#39CB75"/>
<circle cx="2.5" cy="2.5" r="2.5" transform="matrix(-1 0 0 1 41 18)" fill="#39CB75"/>
<circle cx="2.5" cy="2.5" r="2.5" transform="matrix(-1 0 0 1 41 36)" fill="#39CB75"/>
<circle cx="2.5" cy="2.5" r="2.5" transform="matrix(-1 0 0 1 41 54)" fill="#39CB75"/>
<circle cx="2.5" cy="2.5" r="2.5" transform="matrix(-1 0 0 1 41 72)" fill="#39CB75"/>
<circle cx="2.5" cy="2.5" r="2.5" transform="matrix(-1 0 0 1 41 90)" fill="#39CB75"/>
<circle cx="2.5" cy="2.5" r="2.5" transform="matrix(-1 0 0 1 5 18)" fill="#39CB75"/>
<circle cx="2.5" cy="2.5" r="2.5" transform="matrix(-1 0 0 1 5 36)" fill="#39CB75"/>
<circle cx="2.5" cy="2.5" r="2.5" transform="matrix(-1 0 0 1 5 54)" fill="#39CB75"/>
<circle cx="2.5" cy="2.5" r="2.5" transform="matrix(-1 0 0 1 5 72)" fill="#39CB75"/>
<circle cx="2.5" cy="2.5" r="2.5" transform="matrix(-1 0 0 1 5 90)" fill="#39CB75"/>
</svg>
